<?xml version="1.0" encoding="utf-8"?>
<!-- Generator: Adobe Illustrator 16.0.0, SVG Export Plug-In . SVG Version: 6.00 Build 0)  -->
<!DOCTYPE svg PUBLIC "-//W3C//DTD SVG 1.1//EN" "http://www.w3.org/Graphics/SVG/1.1/DTD/svg11.dtd">
<svg version="1.1" id="Layer_1" xmlns="http://www.w3.org/2000/svg" xmlns:xlink="http://www.w3.org/1999/xlink" x="0px" y="0px"
	 width="433.683px" height="43.862px" viewBox="0 0 433.683 43.862" enable-background="new 0 0 433.683 43.862"
	 xml:space="preserve">
<rect fill="#8F1E1E" width="433.683" height="43.862"/>
<rect x="124.641" y="2.874" width="306.944" height="38.115"/>
<polygon fill="#FFFFFF" points="18.649,15.782 18.603,15.782 16.618,33.458 12.235,33.458 9.039,10.695 12.646,10.695 
	14.563,26.872 14.609,26.872 16.503,10.695 20.886,10.695 22.826,26.872 22.872,26.872 24.926,10.695 28.213,10.695 25.086,33.458 
	20.703,33.458 "/>
<path fill="#FFFFFF" d="M36.847,28.372h-4.999l-1.096,5.087h-3.606l5.295-22.764h4.109l5.113,22.764h-3.835L36.847,28.372z
	 M34.473,15.065h-0.046l-1.894,9.458h3.583L34.473,15.065z"/>
<g>
	<defs>
		<rect id="SVGID_1_" width="433.683" height="43.862"/>
	</defs>
	<clipPath id="SVGID_2_">
		<use xlink:href="#SVGID_1_"  overflow="visible"/>
	</clipPath>
	<path clip-path="url(#SVGID_2_)" fill="#FFFFFF" d="M43.312,10.695h5.843c2.625,0,4.862,1.663,4.862,5.87
		c0,0.945-0.092,4.696-3.173,5.576v0.066c1.164,0.195,1.621,1.109,2.214,3.814l1.644,7.437h-3.926l-1.233-6.099
		c-0.616-3.099-1.119-3.099-2.488-3.099v9.197h-3.743V10.695z M46.917,20.414h1.164c1.438,0,2.191-1.37,2.191-3
		c0-0.946-0.205-2.871-2.213-2.871h-1.142V20.414z"/>
	<polygon clip-path="url(#SVGID_2_)" fill="#FFFFFF" points="56.782,10.695 61.165,10.695 65.798,26.479 65.844,26.479 
		65.844,10.695 69.131,10.695 69.131,33.458 64.703,33.458 60.115,16.989 60.069,16.989 60.069,33.458 56.782,33.458 	"/>
	<rect x="72.08" y="10.695" clip-path="url(#SVGID_2_)" fill="#FFFFFF" width="3.743" height="22.764"/>
	<polygon clip-path="url(#SVGID_2_)" fill="#FFFFFF" points="78.77,10.695 83.152,10.695 87.786,26.479 87.832,26.479 
		87.832,10.695 91.119,10.695 91.119,33.458 86.69,33.458 82.103,16.989 82.057,16.989 82.057,33.458 78.77,33.458 	"/>
	<path clip-path="url(#SVGID_2_)" fill="#FFFFFF" d="M100.869,20.414h5.615v12.229c-0.844,0.555-2.716,1.206-5.273,1.206
		c-2.967,0-7.601-2.151-7.601-11.903c0-5.577,2.192-11.643,8.264-11.643c1.871,0,3.218,0.522,4.177,0.913l-0.228,4.468
		c-0.8-0.522-2.009-1.272-3.653-1.272c-3.948,0-4.725,5.185-4.725,7.762c0,4.24,1.37,7.566,4.223,7.566
		c0.548,0,0.982-0.099,1.301-0.326v-5.153h-2.1V20.414z"/>
	<path clip-path="url(#SVGID_2_)" fill="#FFFFFF" d="M113.565,10.695l-0.457,15.524h-2.693l-0.457-15.524H113.565z M110.118,28.567
		h3.287v4.892h-3.287V28.567z"/>
	<polygon clip-path="url(#SVGID_2_)" fill="#FFFFFF" points="140.801,11.989 143.705,11.989 143.705,13.141 141.814,13.141 
		141.814,15.241 143.602,15.241 143.602,16.393 141.814,16.393 141.814,18.72 143.784,18.72 143.784,19.871 140.801,19.871 	"/>
	<polygon clip-path="url(#SVGID_2_)" fill="#FFFFFF" points="144.312,11.989 145.404,11.989 146.521,18.065 146.535,18.065 
		147.683,11.989 148.728,11.989 147.042,19.871 145.973,19.871 	"/>
	<polygon clip-path="url(#SVGID_2_)" fill="#FFFFFF" points="149.453,11.989 152.356,11.989 152.356,13.141 150.465,13.141 
		150.465,15.241 152.253,15.241 152.253,16.393 150.465,16.393 150.465,18.72 152.436,18.72 152.436,19.871 149.453,19.871 	"/>
	<polygon clip-path="url(#SVGID_2_)" fill="#FFFFFF" points="153.478,11.989 154.681,11.989 156.517,18.177 156.532,18.177 
		156.532,11.989 157.45,11.989 157.45,19.871 156.24,19.871 154.412,13.728 154.396,13.728 154.396,19.871 153.478,19.871 	"/>
	<polygon clip-path="url(#SVGID_2_)" fill="#FFFFFF" points="159.503,13.141 158.27,13.141 158.27,11.989 161.743,11.989 
		161.743,13.141 160.517,13.141 160.517,19.872 159.503,19.872 	"/>
	<polygon clip-path="url(#SVGID_2_)" fill="#FFFFFF" points="169.47,13.299 169.454,13.299 168.069,19.871 167.349,19.871 
		166.028,13.299 166.012,13.299 166.012,19.871 165.094,19.871 165.094,11.989 166.605,11.989 167.745,17.873 167.761,17.873 
		168.924,11.989 170.388,11.989 170.388,19.871 169.47,19.871 	"/>
	<path clip-path="url(#SVGID_2_)" fill="#FFFFFF" d="M174.396,17.975h-1.9l-0.395,1.897h-1.013l1.852-7.883h1.107l1.781,7.883
		h-1.045L174.396,17.975z M174.182,16.868l-0.697-3.681h-0.015l-0.76,3.681H174.182z"/>
	<polygon clip-path="url(#SVGID_2_)" fill="#FFFFFF" points="177.645,16.709 176.014,11.99 177.107,11.99 178.183,15.14 
		179.196,11.99 180.288,11.99 178.658,16.744 178.658,19.872 177.645,19.872 	"/>
	<path clip-path="url(#SVGID_2_)" fill="#FFFFFF" d="M183.147,11.989h1.615c1.139,0,1.662,0.61,1.662,1.943
		c0,1.253-0.554,1.626-0.918,1.818v0.023c0.427,0.135,1.044,0.564,1.044,1.885c0,1.435-0.736,2.214-1.717,2.214h-1.686V11.989z
		 M184.129,15.287h0.522c0.499,0,0.791-0.531,0.791-1.175c0-0.666-0.332-1.061-0.815-1.061h-0.498V15.287z M184.129,18.765h0.562
		c0.546,0,0.846-0.474,0.846-1.208c0-0.689-0.253-1.209-0.878-1.209h-0.53V18.765z"/>
	<polygon clip-path="url(#SVGID_2_)" fill="#FFFFFF" points="187.623,11.989 190.527,11.989 190.527,13.141 188.636,13.141 
		188.636,15.241 190.425,15.241 190.425,16.393 188.636,16.393 188.636,18.72 190.606,18.72 190.606,19.871 187.623,19.871 	"/>
	<polygon clip-path="url(#SVGID_2_)" fill="#FFFFFF" points="194.607,13.141 193.374,13.141 193.374,11.989 196.848,11.989 
		196.848,13.141 195.621,13.141 195.621,19.872 194.607,19.872 	"/>
	<path clip-path="url(#SVGID_2_)" fill="#FFFFFF" d="M199.653,11.877c1.147,0,2.2,1.219,2.2,4.054c0,2.834-1.053,4.054-2.2,4.054
		s-2.2-1.22-2.2-4.054C197.454,13.096,198.506,11.877,199.653,11.877 M199.653,18.878c0.641,0,1.155-0.779,1.155-2.947
		c0-2.169-0.514-2.948-1.155-2.948s-1.155,0.779-1.155,2.948C198.499,18.099,199.012,18.878,199.653,18.878"/>
	<path clip-path="url(#SVGID_2_)" fill="#FFFFFF" d="M204.857,11.877c1.147,0,2.199,1.219,2.199,4.054
		c0,2.834-1.052,4.054-2.199,4.054s-2.2-1.22-2.2-4.054C202.657,13.096,203.71,11.877,204.857,11.877 M204.857,18.878
		c0.64,0,1.155-0.779,1.155-2.947c0-2.169-0.515-2.948-1.155-2.948c-0.641,0-1.155,0.779-1.155,2.948
		C203.702,18.099,204.216,18.878,204.857,18.878"/>
	<rect x="210.225" y="11.989" clip-path="url(#SVGID_2_)" fill="#FFFFFF" width="1.013" height="7.882"/>
	<polygon clip-path="url(#SVGID_2_)" fill="#FFFFFF" points="212.486,11.989 213.689,11.989 215.525,18.177 215.541,18.177 
		215.541,11.989 216.458,11.989 216.458,19.871 215.248,19.871 213.42,13.728 213.405,13.728 213.405,19.871 212.486,19.871 	"/>
	<polygon clip-path="url(#SVGID_2_)" fill="#FFFFFF" points="218.513,13.141 217.278,13.141 217.278,11.989 220.753,11.989 
		220.753,13.141 219.525,13.141 219.525,19.872 218.513,19.872 	"/>
	<polygon clip-path="url(#SVGID_2_)" fill="#FFFFFF" points="221.58,11.989 224.484,11.989 224.484,13.141 222.593,13.141 
		222.593,15.241 224.382,15.241 224.382,16.393 222.593,16.393 222.593,18.72 224.562,18.72 224.562,19.871 221.58,19.871 	"/>
	<polygon clip-path="url(#SVGID_2_)" fill="#FFFFFF" points="225.605,11.989 226.81,11.989 228.645,18.177 228.661,18.177 
		228.661,11.989 229.578,11.989 229.578,19.871 228.368,19.871 226.54,13.728 226.524,13.728 226.524,19.871 225.605,19.871 	"/>
	<path clip-path="url(#SVGID_2_)" fill="#FFFFFF" d="M230.747,18.347c0.198,0.18,0.633,0.485,1.171,0.485
		c0.443,0,0.838-0.35,0.838-1.14c0-0.565-0.229-0.813-0.719-1.197l-0.516-0.406c-0.545-0.43-0.901-1.051-0.901-2.067
		c0-1.412,0.814-2.146,1.741-2.146c0.586,0,0.996,0.214,1.154,0.283l-0.047,1.208c-0.245-0.136-0.57-0.339-1.037-0.339
		c-0.506,0-0.767,0.384-0.767,0.926c0,0.587,0.275,0.813,0.585,1.062l0.593,0.474c0.649,0.519,0.958,1.016,0.958,2.123
		c0,1.603-0.799,2.371-1.851,2.371c-0.555,0-0.982-0.113-1.259-0.35L230.747,18.347z"/>
	<polygon clip-path="url(#SVGID_2_)" fill="#FFFFFF" points="234.851,11.989 237.755,11.989 237.755,13.141 235.863,13.141 
		235.863,15.241 237.652,15.241 237.652,16.393 235.863,16.393 235.863,18.72 237.834,18.72 237.834,19.871 234.851,19.871 	"/>
	<polygon clip-path="url(#SVGID_2_)" fill="#FFFFFF" points="241.019,11.989 243.812,11.989 243.812,13.141 242.032,13.141 
		242.032,15.286 243.734,15.286 243.734,16.438 242.032,16.438 242.032,19.871 241.019,19.871 	"/>
	<path clip-path="url(#SVGID_2_)" fill="#FFFFFF" d="M246.738,11.877c1.147,0,2.2,1.219,2.2,4.054c0,2.834-1.053,4.054-2.2,4.054
		s-2.2-1.22-2.2-4.054C244.538,13.096,245.591,11.877,246.738,11.877 M246.738,18.878c0.641,0,1.155-0.779,1.155-2.947
		c0-2.169-0.515-2.948-1.155-2.948s-1.155,0.779-1.155,2.948C245.583,18.099,246.098,18.878,246.738,18.878"/>
	<path clip-path="url(#SVGID_2_)" fill="#FFFFFF" d="M249.916,11.989h1.726c0.98,0,1.646,0.632,1.646,2.078
		c0,1.027-0.451,1.716-1.068,1.852v0.034c0.206,0.045,0.436,0.18,0.609,0.914l0.72,3.004h-1.075l-0.548-2.563
		c-0.134-0.621-0.394-0.824-0.766-0.824h-0.23v3.387h-1.013V11.989z M251.34,15.422c0.538,0,0.902-0.395,0.902-1.197
		c0-0.904-0.332-1.13-0.902-1.13h-0.411v2.327H251.34z"/>
	<polygon clip-path="url(#SVGID_2_)" fill="#FFFFFF" points="257.684,16.709 256.054,11.99 257.146,11.99 258.222,15.14 
		259.235,11.99 260.327,11.99 258.697,16.744 258.697,19.872 257.684,19.872 	"/>
	<path clip-path="url(#SVGID_2_)" fill="#FFFFFF" d="M263.03,11.877c1.146,0,2.2,1.219,2.2,4.054c0,2.834-1.054,4.054-2.2,4.054
		c-1.147,0-2.2-1.22-2.2-4.054C260.83,13.096,261.883,11.877,263.03,11.877 M263.03,18.878c0.641,0,1.155-0.779,1.155-2.947
		c0-2.169-0.515-2.948-1.155-2.948c-0.642,0-1.155,0.779-1.155,2.948C261.875,18.099,262.389,18.878,263.03,18.878"/>
	<path clip-path="url(#SVGID_2_)" fill="#FFFFFF" d="M267.221,11.989v5.104c0,1.31,0.277,1.739,0.87,1.739
		c0.578,0,0.863-0.429,0.863-1.739v-5.104h1.012v5.104c0,2.078-0.838,2.891-1.875,2.891c-1.044,0-1.883-0.813-1.883-2.891v-5.104
		H267.221z"/>
	<polygon clip-path="url(#SVGID_2_)" fill="#FFFFFF" points="271.157,11.989 272.361,11.989 274.196,18.177 274.213,18.177 
		274.213,11.989 275.13,11.989 275.13,19.871 273.92,19.871 272.092,13.728 272.076,13.728 272.076,19.871 271.157,19.871 	"/>
	<path clip-path="url(#SVGID_2_)" fill="#FFFFFF" d="M278.569,15.457h1.788v4.122c-0.284,0.214-0.775,0.406-1.495,0.406
		c-1.771,0-2.714-1.716-2.714-4.054c0-2.337,0.942-4.054,2.714-4.054c0.633,0,1.131,0.203,1.345,0.339l-0.055,1.298
		c-0.325-0.282-0.768-0.485-1.274-0.485c-1.076,0-1.653,1.265-1.653,2.902c0,1.773,0.562,2.902,1.598,2.902
		c0.238,0,0.451-0.067,0.586-0.146v-2.123h-0.839V15.457z"/>
	<path clip-path="url(#SVGID_2_)" fill="#FFFFFF" d="M287.223,19.703c-0.205,0.158-0.696,0.282-1.194,0.282
		c-1.678,0-2.541-1.751-2.541-4.054c0-2.304,0.863-4.054,2.51-4.054c0.562,0,1.021,0.214,1.226,0.327l-0.055,1.299
		c-0.205-0.147-0.53-0.429-1.045-0.429c-0.84,0-1.559,0.813-1.559,2.857s0.719,2.857,1.559,2.857c0.49,0,0.814-0.169,1.045-0.406
		L287.223,19.703z"/>
	<polygon clip-path="url(#SVGID_2_)" fill="#FFFFFF" points="288.186,11.989 289.198,11.989 289.198,15.196 290.836,15.196 
		290.836,11.989 291.85,11.989 291.85,19.871 290.836,19.871 290.836,16.393 289.198,16.393 289.198,19.871 288.186,19.871 	"/>
	<rect x="293.104" y="11.989" clip-path="url(#SVGID_2_)" fill="#FFFFFF" width="1.014" height="7.882"/>
	<polygon clip-path="url(#SVGID_2_)" fill="#FFFFFF" points="295.325,11.989 296.339,11.989 296.339,18.72 298.157,18.72 
		298.157,19.871 295.325,19.871 	"/>
	<path clip-path="url(#SVGID_2_)" fill="#FFFFFF" d="M298.915,11.989h1.44c1.725,0,2.643,1.333,2.643,3.941
		c0,2.654-1.107,3.942-2.643,3.942h-1.44V11.989z M299.929,18.765h0.34c1.139,0,1.654-1.107,1.654-2.835
		c0-1.727-0.516-2.834-1.654-2.834h-0.34V18.765z"/>
	<path clip-path="url(#SVGID_2_)" fill="#FFFFFF" d="M303.977,11.989h1.726c0.98,0,1.646,0.632,1.646,2.078
		c0,1.027-0.451,1.716-1.068,1.852v0.034c0.206,0.045,0.436,0.18,0.608,0.914l0.721,3.004h-1.075l-0.548-2.563
		c-0.134-0.621-0.394-0.824-0.766-0.824h-0.229v3.387h-1.014V11.989z M305.4,15.422c0.538,0,0.902-0.395,0.902-1.197
		c0-0.904-0.332-1.13-0.902-1.13h-0.41v2.327H305.4z"/>
	<polygon clip-path="url(#SVGID_2_)" fill="#FFFFFF" points="308.5,11.989 311.403,11.989 311.403,13.141 309.513,13.141 
		309.513,15.241 311.302,15.241 311.302,16.393 309.513,16.393 309.513,18.72 311.482,18.72 311.482,19.871 308.5,19.871 	"/>
	<polygon clip-path="url(#SVGID_2_)" fill="#FFFFFF" points="312.525,11.989 313.729,11.989 315.564,18.177 315.581,18.177 
		315.581,11.989 316.498,11.989 316.498,19.871 315.287,19.871 313.46,13.728 313.444,13.728 313.444,19.871 312.525,19.871 	"/>
	<path clip-path="url(#SVGID_2_)" fill="#FFFFFF" d="M322.643,17.975h-1.899l-0.396,1.897h-1.013l1.852-7.883h1.108l1.779,7.883
		h-1.044L322.643,17.975z M322.429,16.868l-0.696-3.681h-0.015l-0.76,3.681H322.429z"/>
	<polygon clip-path="url(#SVGID_2_)" fill="#FFFFFF" points="324.775,11.989 325.979,11.989 327.814,18.177 327.83,18.177 
		327.83,11.989 328.747,11.989 328.747,19.871 327.537,19.871 325.709,13.728 325.694,13.728 325.694,19.871 324.775,19.871 	"/>
	<path clip-path="url(#SVGID_2_)" fill="#FFFFFF" d="M329.939,11.989h1.44c1.725,0,2.643,1.333,2.643,3.941
		c0,2.654-1.107,3.942-2.643,3.942h-1.44V11.989z M330.953,18.765h0.34c1.139,0,1.654-1.107,1.654-2.835
		c0-1.727-0.516-2.834-1.654-2.834h-0.34V18.765z"/>
	<rect x="337.192" y="11.989" clip-path="url(#SVGID_2_)" fill="#FFFFFF" width="1.013" height="7.882"/>
	<path clip-path="url(#SVGID_2_)" fill="#FFFFFF" d="M339.391,18.347c0.198,0.18,0.633,0.485,1.171,0.485
		c0.443,0,0.838-0.35,0.838-1.14c0-0.565-0.229-0.813-0.719-1.197l-0.515-0.406c-0.545-0.43-0.902-1.051-0.902-2.067
		c0-1.412,0.815-2.146,1.741-2.146c0.586,0,0.997,0.214,1.155,0.283l-0.047,1.208c-0.245-0.136-0.57-0.339-1.037-0.339
		c-0.506,0-0.768,0.384-0.768,0.926c0,0.587,0.276,0.813,0.585,1.062l0.594,0.474c0.648,0.519,0.958,1.016,0.958,2.123
		c0,1.603-0.8,2.371-1.852,2.371c-0.554,0-0.981-0.113-1.258-0.35L339.391,18.347z"/>
	<polygon clip-path="url(#SVGID_2_)" fill="#FFFFFF" points="345.622,11.989 346.826,11.989 348.661,18.177 348.677,18.177 
		348.677,11.989 349.594,11.989 349.594,19.871 348.384,19.871 346.556,13.728 346.541,13.728 346.541,19.871 345.622,19.871 	"/>
	<path clip-path="url(#SVGID_2_)" fill="#FFFFFF" d="M352.812,11.877c1.146,0,2.199,1.219,2.199,4.054
		c0,2.834-1.053,4.054-2.199,4.054c-1.147,0-2.2-1.22-2.2-4.054C350.612,13.096,351.665,11.877,352.812,11.877 M352.812,18.878
		c0.641,0,1.154-0.779,1.154-2.947c0-2.169-0.514-2.948-1.154-2.948c-0.642,0-1.155,0.779-1.155,2.948
		C351.657,18.099,352.171,18.878,352.812,18.878"/>
	<polygon clip-path="url(#SVGID_2_)" fill="#FFFFFF" points="356.853,13.141 355.618,13.141 355.618,11.989 359.093,11.989 
		359.093,13.141 357.865,13.141 357.865,19.872 356.853,19.872 	"/>
	<path clip-path="url(#SVGID_2_)" fill="#FFFFFF" d="M362.008,11.989h1.725c0.981,0,1.646,0.632,1.646,2.078
		c0,1.027-0.451,1.716-1.068,1.852v0.034c0.206,0.045,0.436,0.18,0.609,0.914l0.72,3.004h-1.076l-0.547-2.563
		c-0.134-0.621-0.395-0.824-0.766-0.824h-0.23v3.387h-1.013V11.989z M363.432,15.422c0.538,0,0.902-0.395,0.902-1.197
		c0-0.904-0.332-1.13-0.902-1.13h-0.411v2.327H363.432z"/>
	<polygon clip-path="url(#SVGID_2_)" fill="#FFFFFF" points="366.531,11.989 369.435,11.989 369.435,13.141 367.544,13.141 
		367.544,15.241 369.333,15.241 369.333,16.393 367.544,16.393 367.544,18.72 369.514,18.72 369.514,19.871 366.531,19.871 	"/>
	<path clip-path="url(#SVGID_2_)" fill="#FFFFFF" d="M374.078,19.703c-0.205,0.158-0.696,0.282-1.194,0.282
		c-1.678,0-2.541-1.751-2.541-4.054c0-2.304,0.863-4.054,2.51-4.054c0.562,0,1.021,0.214,1.226,0.327l-0.055,1.299
		c-0.205-0.147-0.53-0.429-1.045-0.429c-0.84,0-1.559,0.813-1.559,2.857s0.719,2.857,1.559,2.857c0.49,0,0.814-0.169,1.045-0.406
		L374.078,19.703z"/>
	<path clip-path="url(#SVGID_2_)" fill="#FFFFFF" d="M377.02,11.877c1.146,0,2.199,1.219,2.199,4.054
		c0,2.834-1.053,4.054-2.199,4.054c-1.147,0-2.2-1.22-2.2-4.054C374.819,13.096,375.872,11.877,377.02,11.877 M377.02,18.878
		c0.641,0,1.154-0.779,1.154-2.947c0-2.169-0.514-2.948-1.154-2.948c-0.642,0-1.155,0.779-1.155,2.948
		C375.864,18.099,376.378,18.878,377.02,18.878"/>
	<polygon clip-path="url(#SVGID_2_)" fill="#FFFFFF" points="384.612,13.299 384.597,13.299 383.213,19.871 382.491,19.871 
		381.171,13.299 381.154,13.299 381.154,19.871 380.236,19.871 380.236,11.989 381.748,11.989 382.888,17.873 382.903,17.873 
		384.066,11.989 385.53,11.989 385.53,19.871 384.612,19.871 	"/>
	<polygon clip-path="url(#SVGID_2_)" fill="#FFFFFF" points="391.137,13.299 391.121,13.299 389.736,19.871 389.016,19.871 
		387.694,13.299 387.679,13.299 387.679,19.871 386.761,19.871 386.761,11.989 388.272,11.989 389.412,17.873 389.428,17.873 
		390.591,11.989 392.055,11.989 392.055,19.871 391.137,19.871 	"/>
	<polygon clip-path="url(#SVGID_2_)" fill="#FFFFFF" points="393.293,11.989 396.196,11.989 396.196,13.141 394.306,13.141 
		394.306,15.241 396.095,15.241 396.095,16.393 394.306,16.393 394.306,18.72 396.275,18.72 396.275,19.871 393.293,19.871 	"/>
	<polygon clip-path="url(#SVGID_2_)" fill="#FFFFFF" points="397.317,11.989 398.521,11.989 400.356,18.177 400.372,18.177 
		400.372,11.989 401.289,11.989 401.289,19.871 400.079,19.871 398.251,13.728 398.236,13.728 398.236,19.871 397.317,19.871 	"/>
	<path clip-path="url(#SVGID_2_)" fill="#FFFFFF" d="M402.481,11.989h1.44c1.725,0,2.643,1.333,2.643,3.941
		c0,2.654-1.107,3.942-2.643,3.942h-1.44V11.989z M403.495,18.765h0.34c1.139,0,1.654-1.107,1.654-2.835
		c0-1.727-0.516-2.834-1.654-2.834h-0.34V18.765z"/>
	<polygon clip-path="url(#SVGID_2_)" fill="#FFFFFF" points="407.592,11.989 410.495,11.989 410.495,13.141 408.604,13.141 
		408.604,15.241 410.394,15.241 410.394,16.393 408.604,16.393 408.604,18.72 410.574,18.72 410.574,19.871 407.592,19.871 	"/>
	<path clip-path="url(#SVGID_2_)" fill="#FFFFFF" d="M411.577,11.989h1.439c1.726,0,2.644,1.333,2.644,3.941
		c0,2.654-1.108,3.942-2.644,3.942h-1.439V11.989z M412.59,18.765h0.34c1.14,0,1.654-1.107,1.654-2.835
		c0-1.727-0.515-2.834-1.654-2.834h-0.34V18.765z"/>
	<polygon clip-path="url(#SVGID_2_)" fill="#FFFFFF" points="151.193,24.298 153.987,24.298 153.987,25.451 152.206,25.451 
		152.206,27.595 153.907,27.595 153.907,28.748 152.206,28.748 152.206,32.18 151.193,32.18 	"/>
	<path clip-path="url(#SVGID_2_)" fill="#FFFFFF" d="M156.912,24.186c1.147,0,2.199,1.219,2.199,4.054
		c0,2.834-1.052,4.054-2.199,4.054c-1.148,0-2.2-1.22-2.2-4.054C154.711,25.405,155.764,24.186,156.912,24.186 M156.912,31.187
		c0.641,0,1.155-0.779,1.155-2.947c0-2.169-0.514-2.948-1.155-2.948s-1.155,0.779-1.155,2.948
		C155.756,30.408,156.271,31.187,156.912,31.187"/>
	<path clip-path="url(#SVGID_2_)" fill="#FFFFFF" d="M160.089,24.298h1.725c0.981,0,1.646,0.632,1.646,2.078
		c0,1.027-0.451,1.716-1.068,1.853v0.033c0.205,0.045,0.435,0.181,0.609,0.914l0.72,3.004h-1.076l-0.546-2.562
		c-0.135-0.621-0.396-0.824-0.768-0.824h-0.229v3.387h-1.013V24.298z M161.513,27.732c0.538,0,0.902-0.396,0.902-1.197
		c0-0.904-0.332-1.13-0.902-1.13h-0.411v2.327H161.513z"/>
	<path clip-path="url(#SVGID_2_)" fill="#FFFFFF" d="M170.261,32.011c-0.206,0.158-0.697,0.282-1.195,0.282
		c-1.677,0-2.54-1.751-2.54-4.054c0-2.305,0.863-4.055,2.508-4.055c0.562,0,1.021,0.215,1.227,0.327l-0.055,1.299
		c-0.206-0.146-0.531-0.429-1.045-0.429c-0.839,0-1.559,0.813-1.559,2.857s0.72,2.856,1.559,2.856c0.491,0,0.815-0.169,1.045-0.405
		L170.261,32.011z"/>
	<polygon clip-path="url(#SVGID_2_)" fill="#FFFFFF" points="171.223,24.298 172.236,24.298 172.236,27.505 173.874,27.505 
		173.874,24.298 174.887,24.298 174.887,32.18 173.874,32.18 173.874,28.703 172.236,28.703 172.236,32.18 171.223,32.18 	"/>
	<rect x="176.142" y="24.297" clip-path="url(#SVGID_2_)" fill="#FFFFFF" width="1.013" height="7.883"/>
	<polygon clip-path="url(#SVGID_2_)" fill="#FFFFFF" points="178.364,24.298 179.377,24.298 179.377,31.029 181.197,31.029 
		181.197,32.18 178.364,32.18 	"/>
	<path clip-path="url(#SVGID_2_)" fill="#FFFFFF" d="M181.955,24.298h1.44c1.725,0,2.643,1.333,2.643,3.94
		c0,2.654-1.108,3.942-2.643,3.942h-1.44V24.298z M182.967,31.074h0.34c1.14,0,1.654-1.106,1.654-2.835
		c0-1.727-0.514-2.834-1.654-2.834h-0.34V31.074z"/>
	<path clip-path="url(#SVGID_2_)" fill="#FFFFFF" d="M187.016,24.298h1.724c0.981,0,1.647,0.632,1.647,2.078
		c0,1.027-0.451,1.716-1.068,1.853v0.033c0.205,0.045,0.434,0.181,0.609,0.914l0.719,3.004h-1.075l-0.547-2.562
		c-0.134-0.621-0.395-0.824-0.767-0.824h-0.23v3.387h-1.012V24.298z M188.44,27.732c0.538,0,0.902-0.396,0.902-1.197
		c0-0.904-0.333-1.13-0.902-1.13h-0.412v2.327H188.44z"/>
	<polygon clip-path="url(#SVGID_2_)" fill="#FFFFFF" points="191.538,24.298 194.442,24.298 194.442,25.451 192.551,25.451 
		192.551,27.55 194.34,27.55 194.34,28.703 192.551,28.703 192.551,31.029 194.521,31.029 194.521,32.18 191.538,32.18 	"/>
	<polygon clip-path="url(#SVGID_2_)" fill="#FFFFFF" points="195.564,24.298 196.768,24.298 198.603,30.486 198.619,30.486 
		198.619,24.298 199.536,24.298 199.536,32.18 198.326,32.18 196.498,26.038 196.483,26.038 196.483,32.18 195.564,32.18 	"/>
	<path clip-path="url(#SVGID_2_)" fill="#FFFFFF" d="M203.877,24.298v5.104c0,1.311,0.277,1.739,0.87,1.739
		c0.577,0,0.862-0.429,0.862-1.739v-5.104h1.013v5.104c0,2.078-0.839,2.892-1.875,2.892c-1.044,0-1.883-0.813-1.883-2.892v-5.104
		H203.877z"/>
	<polygon clip-path="url(#SVGID_2_)" fill="#FFFFFF" points="207.813,24.298 209.017,24.298 210.852,30.486 210.868,30.486 
		210.868,24.298 211.785,24.298 211.785,32.18 210.575,32.18 208.747,26.038 208.732,26.038 208.732,32.18 207.813,32.18 	"/>
	<path clip-path="url(#SVGID_2_)" fill="#FFFFFF" d="M212.978,24.298h1.44c1.725,0,2.643,1.333,2.643,3.94
		c0,2.654-1.108,3.942-2.643,3.942h-1.44V24.298z M213.991,31.074h0.34c1.139,0,1.654-1.106,1.654-2.835
		c0-1.727-0.515-2.834-1.654-2.834h-0.34V31.074z"/>
	<polygon clip-path="url(#SVGID_2_)" fill="#FFFFFF" points="218.086,24.298 220.99,24.298 220.99,25.451 219.1,25.451 219.1,27.55 
		220.889,27.55 220.889,28.703 219.1,28.703 219.1,31.029 221.069,31.029 221.069,32.18 218.086,32.18 	"/>
	<path clip-path="url(#SVGID_2_)" fill="#FFFFFF" d="M222.072,24.298h1.725c0.981,0,1.646,0.632,1.646,2.078
		c0,1.027-0.451,1.716-1.068,1.853v0.033c0.206,0.045,0.435,0.181,0.609,0.914l0.72,3.004h-1.076l-0.547-2.562
		c-0.134-0.621-0.396-0.824-0.767-0.824h-0.229v3.387h-1.013V24.298z M223.496,27.732c0.538,0,0.901-0.396,0.901-1.197
		c0-0.904-0.332-1.13-0.901-1.13h-0.411v2.327H223.496z"/>
	<polygon clip-path="url(#SVGID_2_)" fill="#FFFFFF" points="229.547,25.45 228.312,25.45 228.312,24.298 231.786,24.298 
		231.786,25.45 230.56,25.45 230.56,32.181 229.547,32.181 	"/>
	<polygon clip-path="url(#SVGID_2_)" fill="#FFFFFF" points="232.613,24.298 233.627,24.298 233.627,27.505 235.265,27.505 
		235.265,24.298 236.277,24.298 236.277,32.18 235.265,32.18 235.265,28.703 233.627,28.703 233.627,32.18 232.613,32.18 	"/>
	<polygon clip-path="url(#SVGID_2_)" fill="#FFFFFF" points="237.524,24.298 240.428,24.298 240.428,25.451 238.537,25.451 
		238.537,27.55 240.326,27.55 240.326,28.703 238.537,28.703 238.537,31.029 240.507,31.029 240.507,32.18 237.524,32.18 	"/>
	<path clip-path="url(#SVGID_2_)" fill="#FFFFFF" d="M246.462,30.284h-1.898l-0.396,1.897h-1.013l1.853-7.883h1.107l1.78,7.883
		h-1.044L246.462,30.284z M246.248,29.177l-0.696-3.682h-0.015l-0.76,3.682H246.248z"/>
	<path clip-path="url(#SVGID_2_)" fill="#FFFFFF" d="M250.803,27.765h1.788v4.122c-0.284,0.214-0.774,0.406-1.495,0.406
		c-1.771,0-2.714-1.716-2.714-4.054s0.942-4.055,2.714-4.055c0.633,0,1.131,0.203,1.346,0.339l-0.056,1.299
		c-0.325-0.282-0.768-0.485-1.273-0.485c-1.077,0-1.654,1.265-1.654,2.902c0,1.772,0.562,2.901,1.598,2.901
		c0.238,0,0.451-0.066,0.586-0.146v-2.123h-0.839V27.765z"/>
	<polygon clip-path="url(#SVGID_2_)" fill="#FFFFFF" points="253.807,24.298 256.711,24.298 256.711,25.451 254.819,25.451 
		254.819,27.55 256.608,27.55 256.608,28.703 254.819,28.703 254.819,31.029 256.79,31.029 256.79,32.18 253.807,32.18 	"/>
	<path clip-path="url(#SVGID_2_)" fill="#FFFFFF" d="M261.955,24.186c1.146,0,2.199,1.219,2.199,4.054
		c0,2.834-1.053,4.054-2.199,4.054c-1.147,0-2.2-1.22-2.2-4.054C259.755,25.405,260.808,24.186,261.955,24.186 M261.955,31.187
		c0.641,0,1.154-0.779,1.154-2.947c0-2.169-0.514-2.948-1.154-2.948c-0.642,0-1.155,0.779-1.155,2.948
		C260.8,30.408,261.313,31.187,261.955,31.187"/>
	<polygon clip-path="url(#SVGID_2_)" fill="#FFFFFF" points="265.18,24.298 267.974,24.298 267.974,25.451 266.192,25.451 
		266.192,27.595 267.895,27.595 267.895,28.748 266.192,28.748 266.192,32.18 265.18,32.18 	"/>
	<polygon clip-path="url(#SVGID_2_)" fill="#FFFFFF" points="272.006,25.958 271.271,26.942 270.804,25.969 272.148,24.298 
		272.987,24.298 272.987,32.18 272.006,32.18 	"/>
	<path clip-path="url(#SVGID_2_)" fill="#FFFFFF" d="M274.797,30.747c0.213,0.146,0.585,0.395,1.115,0.395
		c0.579,0,1.013-0.484,1.013-1.309c0-0.915-0.569-1.187-1.068-1.187c-0.149,0-0.292,0.012-0.402,0.033v-1.095h0.166
		c0.633,0,1.281-0.214,1.281-1.197c0-0.723-0.435-1.05-0.894-1.05c-0.332,0-0.713,0.158-1.053,0.384l-0.056-1.208
		c0.276-0.125,0.704-0.328,1.329-0.328c0.974,0,1.654,0.7,1.654,1.987c0,1.401-0.712,1.762-1.068,1.83v0.022
		c0.506,0.204,1.155,0.497,1.155,1.908c0,1.581-0.909,2.36-1.915,2.36c-0.546,0-0.965-0.169-1.312-0.339L274.797,30.747z"/>
	<rect x="279.09" y="30.712" clip-path="url(#SVGID_2_)" fill="#FFFFFF" width="0.95" height="1.469"/>
	<polygon clip-path="url(#SVGID_2_)" fill="#FFFFFF" points="283.385,24.298 284.589,24.298 286.424,30.486 286.439,30.486 
		286.439,24.298 287.357,24.298 287.357,32.18 286.146,32.18 284.318,26.038 284.304,26.038 284.304,32.18 283.385,32.18 	"/>
	<path clip-path="url(#SVGID_2_)" fill="#FFFFFF" d="M290.575,24.186c1.146,0,2.2,1.219,2.2,4.054c0,2.834-1.054,4.054-2.2,4.054
		c-1.147,0-2.2-1.22-2.2-4.054C288.375,25.405,289.428,24.186,290.575,24.186 M290.575,31.187c0.641,0,1.155-0.779,1.155-2.947
		c0-2.169-0.515-2.948-1.155-2.948c-0.642,0-1.155,0.779-1.155,2.948C289.42,30.408,289.934,31.187,290.575,31.187"/>
	<path clip-path="url(#SVGID_2_)" fill="#FFFFFF" d="M299.45,32.011c-0.205,0.158-0.696,0.282-1.194,0.282
		c-1.678,0-2.541-1.751-2.541-4.054c0-2.305,0.863-4.055,2.509-4.055c0.562,0,1.021,0.215,1.227,0.327l-0.056,1.299
		c-0.205-0.146-0.529-0.429-1.045-0.429c-0.839,0-1.558,0.813-1.558,2.857s0.719,2.856,1.558,2.856c0.491,0,0.815-0.169,1.045-0.405
		L299.45,32.011z"/>
	<path clip-path="url(#SVGID_2_)" fill="#FFFFFF" d="M302.391,24.186c1.147,0,2.2,1.219,2.2,4.054c0,2.834-1.053,4.054-2.2,4.054
		c-1.146,0-2.2-1.22-2.2-4.054C300.19,25.405,301.244,24.186,302.391,24.186 M302.391,31.187c0.642,0,1.155-0.779,1.155-2.947
		c0-2.169-0.514-2.948-1.155-2.948c-0.641,0-1.154,0.779-1.154,2.948C301.236,30.408,301.75,31.187,302.391,31.187"/>
	<path clip-path="url(#SVGID_2_)" fill="#FFFFFF" d="M305.545,30.656c0.198,0.181,0.634,0.485,1.171,0.485
		c0.443,0,0.839-0.35,0.839-1.14c0-0.565-0.229-0.813-0.72-1.197l-0.515-0.406c-0.545-0.43-0.902-1.051-0.902-2.066
		c0-1.412,0.815-2.146,1.741-2.146c0.586,0,0.997,0.214,1.155,0.283l-0.047,1.208c-0.245-0.136-0.57-0.339-1.037-0.339
		c-0.506,0-0.768,0.384-0.768,0.926c0,0.587,0.276,0.813,0.585,1.062l0.594,0.474c0.648,0.519,0.958,1.016,0.958,2.123
		c0,1.603-0.8,2.371-1.852,2.371c-0.554,0-0.981-0.113-1.258-0.351L305.545,30.656z"/>
	<polygon clip-path="url(#SVGID_2_)" fill="#FFFFFF" points="310.464,25.45 309.23,25.45 309.23,24.298 312.704,24.298 
		312.704,25.45 311.477,25.45 311.477,32.181 310.464,32.181 	"/>
	<path clip-path="url(#SVGID_2_)" fill="#FFFFFF" d="M314.497,24.298v5.104c0,1.311,0.277,1.739,0.87,1.739
		c0.578,0,0.863-0.429,0.863-1.739v-5.104h1.012v5.104c0,2.078-0.838,2.892-1.875,2.892c-1.044,0-1.883-0.813-1.883-2.892v-5.104
		H314.497z"/>
	<polygon clip-path="url(#SVGID_2_)" fill="#FFFFFF" points="322.81,25.609 322.794,25.609 321.41,32.18 320.689,32.18 
		319.368,25.609 319.352,25.609 319.352,32.18 318.434,32.18 318.434,24.298 319.946,24.298 321.085,30.181 321.101,30.181 
		322.264,24.298 323.728,24.298 323.728,32.18 322.81,32.18 	"/>
	<polygon clip-path="url(#SVGID_2_)" fill="#FFFFFF" points="324.966,24.298 327.87,24.298 327.87,25.451 325.979,25.451 
		325.979,27.55 327.768,27.55 327.768,28.703 325.979,28.703 325.979,31.029 327.949,31.029 327.949,32.18 324.966,32.18 	"/>
	<path clip-path="url(#SVGID_2_)" fill="#FFFFFF" d="M328.929,30.656c0.198,0.181,0.634,0.485,1.171,0.485
		c0.443,0,0.839-0.35,0.839-1.14c0-0.565-0.229-0.813-0.72-1.197l-0.515-0.406c-0.545-0.43-0.902-1.051-0.902-2.066
		c0-1.412,0.815-2.146,1.741-2.146c0.586,0,0.997,0.214,1.155,0.283l-0.047,1.208c-0.245-0.136-0.57-0.339-1.037-0.339
		c-0.506,0-0.768,0.384-0.768,0.926c0,0.587,0.276,0.813,0.585,1.062l0.594,0.474c0.648,0.519,0.958,1.016,0.958,2.123
		c0,1.603-0.8,2.371-1.852,2.371c-0.554,0-0.981-0.113-1.258-0.351L328.929,30.656z"/>
	<path clip-path="url(#SVGID_2_)" fill="#FFFFFF" d="M337.146,24.186c1.147,0,2.2,1.219,2.2,4.054c0,2.834-1.053,4.054-2.2,4.054
		c-1.146,0-2.199-1.22-2.199-4.054C334.947,25.405,336,24.186,337.146,24.186 M337.146,31.187c0.642,0,1.155-0.779,1.155-2.947
		c0-2.169-0.514-2.948-1.155-2.948c-0.641,0-1.154,0.779-1.154,2.948C335.992,30.408,336.506,31.187,337.146,31.187"/>
	<path clip-path="url(#SVGID_2_)" fill="#FFFFFF" d="M340.324,24.298h1.726c0.98,0,1.646,0.632,1.646,2.078
		c0,1.027-0.45,1.716-1.067,1.853v0.033c0.206,0.045,0.435,0.181,0.608,0.914l0.721,3.004h-1.076l-0.547-2.562
		c-0.135-0.621-0.395-0.824-0.767-0.824h-0.229v3.387h-1.014V24.298z M341.749,27.732c0.538,0,0.901-0.396,0.901-1.197
		c0-0.904-0.332-1.13-0.901-1.13h-0.411v2.327H341.749z"/>
	<polygon clip-path="url(#SVGID_2_)" fill="#FFFFFF" points="351.352,25.609 351.336,25.609 349.951,32.18 349.23,32.18 
		347.909,25.609 347.894,25.609 347.894,32.18 346.976,32.18 346.976,24.298 348.487,24.298 349.626,30.181 349.643,30.181 
		350.806,24.298 352.27,24.298 352.27,32.18 351.352,32.18 	"/>
	<path clip-path="url(#SVGID_2_)" fill="#FFFFFF" d="M356.277,30.284h-1.899l-0.396,1.897h-1.014l1.854-7.883h1.106l1.78,7.883
		h-1.044L356.277,30.284z M356.062,29.177l-0.695-3.682h-0.016l-0.76,3.682H356.062z"/>
	<path clip-path="url(#SVGID_2_)" fill="#FFFFFF" d="M358.348,30.656c0.198,0.181,0.634,0.485,1.172,0.485
		c0.442,0,0.838-0.35,0.838-1.14c0-0.565-0.229-0.813-0.72-1.197l-0.515-0.406c-0.545-0.43-0.902-1.051-0.902-2.066
		c0-1.412,0.815-2.146,1.741-2.146c0.586,0,0.997,0.214,1.155,0.283l-0.047,1.208c-0.245-0.136-0.57-0.339-1.037-0.339
		c-0.506,0-0.768,0.384-0.768,0.926c0,0.587,0.276,0.813,0.586,1.062l0.593,0.474c0.648,0.519,0.958,1.016,0.958,2.123
		c0,1.603-0.799,2.371-1.852,2.371c-0.554,0-0.981-0.113-1.258-0.351L358.348,30.656z"/>
	<polygon clip-path="url(#SVGID_2_)" fill="#FFFFFF" points="362.452,24.298 363.465,24.298 363.465,27.641 363.488,27.641 
		365.062,24.298 366.227,24.298 364.352,28.013 366.377,32.18 365.149,32.18 363.488,28.477 363.465,28.477 363.465,32.18 
		362.452,32.18 	"/>
	<path clip-path="url(#SVGID_2_)" fill="#FFFFFF" d="M366.999,30.656c0.198,0.181,0.634,0.485,1.171,0.485
		c0.443,0,0.839-0.35,0.839-1.14c0-0.565-0.229-0.813-0.72-1.197l-0.515-0.406c-0.545-0.43-0.902-1.051-0.902-2.066
		c0-1.412,0.815-2.146,1.741-2.146c0.586,0,0.997,0.214,1.155,0.283l-0.047,1.208c-0.245-0.136-0.57-0.339-1.037-0.339
		c-0.506,0-0.768,0.384-0.768,0.926c0,0.587,0.276,0.813,0.585,1.062l0.594,0.474c0.648,0.519,0.958,1.016,0.958,2.123
		c0,1.603-0.8,2.371-1.853,2.371c-0.553,0-0.98-0.113-1.257-0.351L366.999,30.656z"/>
	<path clip-path="url(#SVGID_2_)" fill="#FFFFFF" d="M376.008,30.284h-1.898l-0.396,1.897H372.7l1.852-7.883h1.108l1.78,7.883
		h-1.044L376.008,30.284z M375.794,29.177l-0.695-3.682h-0.016l-0.76,3.682H375.794z"/>
	<polygon clip-path="url(#SVGID_2_)" fill="#FFFFFF" points="378.102,24.298 379.115,24.298 379.115,31.029 380.935,31.029 
		380.935,32.18 378.102,32.18 	"/>
	<polygon clip-path="url(#SVGID_2_)" fill="#FFFFFF" points="381.691,24.298 382.705,24.298 382.705,31.029 384.523,31.029 
		384.523,32.18 381.691,32.18 	"/>
	<path clip-path="url(#SVGID_2_)" fill="#FFFFFF" d="M387.309,24.186c1.147,0,2.2,1.219,2.2,4.054c0,2.834-1.053,4.054-2.2,4.054
		c-1.146,0-2.2-1.22-2.2-4.054C385.108,25.405,386.162,24.186,387.309,24.186 M387.309,31.187c0.641,0,1.155-0.779,1.155-2.947
		c0-2.169-0.515-2.948-1.155-2.948s-1.155,0.779-1.155,2.948C386.153,30.408,386.668,31.187,387.309,31.187"/>
	<polygon clip-path="url(#SVGID_2_)" fill="#FFFFFF" points="393.256,25.721 393.24,25.721 392.369,32.181 391.175,32.181 
		390.06,24.298 391.009,24.298 391.784,30.375 391.8,30.375 392.632,24.298 393.865,24.298 394.688,30.375 394.705,30.375 
		395.511,24.298 396.43,24.298 395.29,32.181 394.078,32.181 	"/>
	<polygon clip-path="url(#SVGID_2_)" fill="#FFFFFF" points="397.2,24.298 400.104,24.298 400.104,25.451 398.213,25.451 
		398.213,27.55 400.002,27.55 400.002,28.703 398.213,28.703 398.213,31.029 400.184,31.029 400.184,32.18 397.2,32.18 	"/>
	<path clip-path="url(#SVGID_2_)" fill="#FFFFFF" d="M401.187,24.298h1.439c1.726,0,2.644,1.333,2.644,3.94
		c0,2.654-1.108,3.942-2.644,3.942h-1.439V24.298z M402.199,31.074h0.34c1.139,0,1.654-1.106,1.654-2.835
		c0-1.727-0.516-2.834-1.654-2.834h-0.34V31.074z"/>
	<rect x="406.263" y="30.712" clip-path="url(#SVGID_2_)" fill="#FFFFFF" width="0.95" height="1.469"/>
</g>
</svg>
