<svg id="Layer_1" data-name="Layer 1" xmlns="http://www.w3.org/2000/svg" viewBox="0 0 581.7 90.4"><defs><style>.cls-1{fill:#8f1e1e;}.cls-2{fill:#fff;}</style></defs><title>m_warning</title><g id="_Group_" data-name="&lt;Group&gt;"><rect id="_Rectangle_" data-name="&lt;Rectangle&gt;" class="cls-1" width="581.7" height="90.44"/><rect id="_Rectangle_2" data-name="&lt;Rectangle&gt;" x="221" y="5.1" width="357" height="80.25"/><path class="cls-2" d="M41.1,204.4H41l-3.5,31.3H29.7L24,195.4h6.4L33.8,224h.1l3.4-28.7H45L48.5,224h.1l3.6-28.7H58l-5.5,40.4H44.7Z" transform="translate(-8 -171.2)"/><path class="cls-2" d="M73.3,226.7H64.5l-1.9,9H56.1l9.4-40.4h7.3l9.1,40.4H75.1Zm-4.2-23.6H69l-3.4,16.8H72Z" transform="translate(-8 -171.2)"/><path class="cls-2" d="M84.8,195.4H95.2c4.7,0,8.6,2.9,8.6,10.4,0,1.7-.2,8.3-5.6,9.9h0c2.1.3,2.9,2,3.9,6.8l2.9,13.2H98l-2.2-10.8c-1.1-5.5-2-5.5-4.4-5.5v16.3H84.8Zm6.4,17.2h2.1c2.5,0,3.9-2.4,3.9-5.3s-.4-5.1-3.9-5.1h-2Z" transform="translate(-8 -171.2)"/><path class="cls-2" d="M108.7,195.4h7.8l8.2,28h.1v-28h5.8v40.4h-7.9l-8.1-29.2h-.1v29.2h-5.8Z" transform="translate(-8 -171.2)"/><path class="cls-2" d="M135.8,195.4h6.6v40.4h-6.6Z" transform="translate(-8 -171.2)"/><path class="cls-2" d="M147.7,195.4h7.8l8.2,28h.1v-28h5.8v40.4h-7.9l-8.1-29.2h-.1v29.2h-5.8Z" transform="translate(-8 -171.2)"/><path class="cls-2" d="M186.9,212.6h10v21.7c-1.5,1-4.8,2.1-9.4,2.1S174,232.6,174,215.3c0-9.9,3.9-20.6,14.7-20.6a18.5,18.5,0,0,1,7.4,1.6l-.4,7.9a11.6,11.6,0,0,0-6.5-2.3c-7,0-8.4,9.2-8.4,13.8,0,7.5,2.4,13.4,7.5,13.4a3.9,3.9,0,0,0,2.3-.6v-9.1h-3.7Z" transform="translate(-8 -171.2)"/><path class="cls-2" d="M209.4,195.4l-.8,27.5h-4.8l-.8-27.5ZM203.3,227h5.8v8.7h-5.8Z" transform="translate(-8 -171.2)"/><path class="cls-2" d="M248.2,188.4h5.2v2H250v3.7h3.2v2H250v4.1h3.5v2h-5.3Z" transform="translate(-8 -171.2)"/><path class="cls-2" d="M254.4,188.4h1.9l2,10.8h0l2-10.8h1.9l-3,14h-1.9Z" transform="translate(-8 -171.2)"/><path class="cls-2" d="M263.6,188.4h5.2v2h-3.4v3.7h3.2v2h-3.2v4.1h3.5v2h-5.3Z" transform="translate(-8 -171.2)"/><path class="cls-2" d="M270.7,188.4h2.1l3.3,11h0v-11h1.6v14h-2.1l-3.2-10.9h0v10.9h-1.6Z" transform="translate(-8 -171.2)"/><path class="cls-2" d="M281.4,190.4h-2.2v-2h6.2v2h-2.2v11.9h-1.8Z" transform="translate(-8 -171.2)"/><path class="cls-2" d="M300.2,190.7h0l-2.5,11.7h-1.3l-2.3-11.7h0v11.7h-1.6v-14h2.7l2,10.4h0l2.1-10.4h2.6v14h-1.6Z" transform="translate(-8 -171.2)"/><path class="cls-2" d="M308.9,199h-3.4l-.7,3.4h-1.8l3.3-14h2l3.2,14h-1.9Zm-.4-2-1.2-6.5h0L306,197Z" transform="translate(-8 -171.2)"/><path class="cls-2" d="M314.7,196.8l-2.9-8.4h1.9l1.9,5.6,1.8-5.6h1.9l-2.9,8.4v5.5h-1.8Z" transform="translate(-8 -171.2)"/><path class="cls-2" d="M325.4,188.4h2.9c2,0,2.9,1.1,2.9,3.4s-1,2.9-1.6,3.2h0c.8.2,1.9,1,1.9,3.3s-1.3,3.9-3,3.9h-3Zm1.7,5.8h.9c.9,0,1.4-.9,1.4-2.1s-.6-1.9-1.4-1.9h-.9Zm0,6.2h1c1,0,1.5-.8,1.5-2.1s-.4-2.1-1.6-2.1h-.9Z" transform="translate(-8 -171.2)"/><path class="cls-2" d="M333.4,188.4h5.2v2h-3.4v3.7h3.2v2h-3.2v4.1h3.5v2h-5.3Z" transform="translate(-8 -171.2)"/><path class="cls-2" d="M346.7,190.4h-2.2v-2h6.2v2h-2.2v11.9h-1.8Z" transform="translate(-8 -171.2)"/><path class="cls-2" d="M355.7,188.2c2,0,3.9,2.2,3.9,7.2s-1.9,7.2-3.9,7.2-3.9-2.2-3.9-7.2S353.6,188.2,355.7,188.2Zm0,12.4c1.1,0,2-1.4,2-5.2s-.9-5.2-2-5.2-2.1,1.4-2.1,5.2S354.5,200.6,355.7,200.6Z" transform="translate(-8 -171.2)"/><path class="cls-2" d="M364.9,188.2c2,0,3.9,2.2,3.9,7.2s-1.9,7.2-3.9,7.2-3.9-2.2-3.9-7.2S362.9,188.2,364.9,188.2Zm0,12.4c1.1,0,2-1.4,2-5.2s-.9-5.2-2-5.2-2.1,1.4-2.1,5.2S363.8,200.6,364.9,200.6Z" transform="translate(-8 -171.2)"/><path class="cls-2" d="M375.4,188.4h1.8v14h-1.8Z" transform="translate(-8 -171.2)"/><path class="cls-2" d="M379.4,188.4h2.1l3.3,11h0v-11h1.6v14h-2.1l-3.2-10.9h0v10.9h-1.6Z" transform="translate(-8 -171.2)"/><path class="cls-2" d="M390.1,190.4h-2.2v-2h6.2v2h-2.2v11.9h-1.8Z" transform="translate(-8 -171.2)"/><path class="cls-2" d="M395.5,188.4h5.2v2h-3.4v3.7h3.2v2h-3.2v4.1h3.5v2h-5.3Z" transform="translate(-8 -171.2)"/><path class="cls-2" d="M402.7,188.4h2.1l3.3,11h0v-11h1.6v14h-2.1l-3.2-10.9h0v10.9h-1.6Z" transform="translate(-8 -171.2)"/><path class="cls-2" d="M411.8,199.7a3.2,3.2,0,0,0,2.1.9c.8,0,1.5-.6,1.5-2s-.4-1.4-1.3-2.1l-.9-.7a4.3,4.3,0,0,1-1.6-3.7c0-2.5,1.4-3.8,3.1-3.8a4.7,4.7,0,0,1,2,.5v2.1a3.6,3.6,0,0,0-1.8-.6c-.9,0-1.4.7-1.4,1.6a2.1,2.1,0,0,0,1,1.9l1.1.8a4.1,4.1,0,0,1,1.7,3.8c0,2.8-1.4,4.2-3.3,4.2a3.4,3.4,0,0,1-2.2-.6Z" transform="translate(-8 -171.2)"/><path class="cls-2" d="M419.1,188.4h5.2v2h-3.4v3.7H424v2h-3.2v4.1h3.5v2h-5.3Z" transform="translate(-8 -171.2)"/><path class="cls-2" d="M431,188.4h5v2h-3.2v3.8h3v2h-3v6.1H431Z" transform="translate(-8 -171.2)"/><path class="cls-2" d="M441.1,188.2c2,0,3.9,2.2,3.9,7.2s-1.9,7.2-3.9,7.2-3.9-2.2-3.9-7.2S439.1,188.2,441.1,188.2Zm0,12.4c1.1,0,2-1.4,2-5.2s-.9-5.2-2-5.2-2,1.4-2,5.2S440,200.6,441.1,200.6Z" transform="translate(-8 -171.2)"/><path class="cls-2" d="M446.7,188.4h3.1c1.7,0,2.9,1.1,2.9,3.7s-.8,3-1.9,3.3h0c.4.1.8.3,1.1,1.6l1.3,5.3h-1.9l-1-4.5c-.2-1.1-.7-1.5-1.4-1.5h-.4v6h-1.8Zm2.5,6.1c1,0,1.6-.7,1.6-2.1s-.6-2-1.6-2h-.7v4.1Z" transform="translate(-8 -171.2)"/><path class="cls-2" d="M461.5,196.8l-2.9-8.4h1.9l1.9,5.6,1.8-5.6h1.9l-2.9,8.4v5.5h-1.8Z" transform="translate(-8 -171.2)"/><path class="cls-2" d="M471,188.2c2,0,3.9,2.2,3.9,7.2s-1.9,7.2-3.9,7.2-3.9-2.2-3.9-7.2S468.9,188.2,471,188.2Zm0,12.4c1.1,0,2-1.4,2-5.2s-.9-5.2-2-5.2-2,1.4-2,5.2S469.8,200.6,471,200.6Z" transform="translate(-8 -171.2)"/><path class="cls-2" d="M478.4,188.4v9.1c0,2.3.5,3.1,1.5,3.1s1.5-.8,1.5-3.1v-9.1h1.8v9.1c0,3.7-1.5,5.1-3.3,5.1s-3.3-1.4-3.3-5.1v-9.1Z" transform="translate(-8 -171.2)"/><path class="cls-2" d="M485.4,188.4h2.1l3.3,11h0v-11h1.6v14h-2.1L487,191.5h0v10.9h-1.6Z" transform="translate(-8 -171.2)"/><path class="cls-2" d="M498.5,194.5h3.2v7.3a4.4,4.4,0,0,1-2.7.7c-3.1,0-4.8-3-4.8-7.2s1.7-7.2,4.8-7.2a4.8,4.8,0,0,1,2.4.6v2.3a3.5,3.5,0,0,0-2.3-.9c-1.9,0-2.9,2.2-2.9,5.1s1,5.1,2.8,5.1a2.1,2.1,0,0,0,1-.3v-3.8h-1.5Z" transform="translate(-8 -171.2)"/><path class="cls-2" d="M514.8,202.1a4,4,0,0,1-2.1.5c-3,0-4.5-3.1-4.5-7.2s1.5-7.2,4.4-7.2a4.7,4.7,0,0,1,2.2.6v2.3a3,3,0,0,0-1.9-.8c-1.5,0-2.8,1.4-2.8,5.1s1.3,5.1,2.8,5.1a2.4,2.4,0,0,0,1.9-.7Z" transform="translate(-8 -171.2)"/><path class="cls-2" d="M516.5,188.4h1.8v5.7h2.9v-5.7H523v14h-1.8v-6.2h-2.9v6.2h-1.8Z" transform="translate(-8 -171.2)"/><path class="cls-2" d="M525.2,188.4H527v14h-1.8Z" transform="translate(-8 -171.2)"/><path class="cls-2" d="M529.2,188.4H531v11.9h3.2v2h-5Z" transform="translate(-8 -171.2)"/><path class="cls-2" d="M535.6,188.4h2.6c3.1,0,4.7,2.4,4.7,7s-2,7-4.7,7h-2.6Zm1.8,12h.6c2,0,2.9-2,2.9-5s-.9-5-2.9-5h-.6Z" transform="translate(-8 -171.2)"/><path class="cls-2" d="M544.5,188.4h3.1c1.7,0,2.9,1.1,2.9,3.7s-.8,3-1.9,3.3h0c.4.1.8.3,1.1,1.6l1.3,5.3h-1.9l-1-4.5c-.2-1.1-.7-1.5-1.4-1.5h-.4v6h-1.8Zm2.5,6.1c1,0,1.6-.7,1.6-2.1s-.6-2-1.6-2h-.7v4.1Z" transform="translate(-8 -171.2)"/><path class="cls-2" d="M552.5,188.4h5.2v2h-3.4v3.7h3.2v2h-3.2v4.1h3.5v2h-5.3Z" transform="translate(-8 -171.2)"/><path class="cls-2" d="M559.7,188.4h2.1l3.3,11h0v-11h1.6v14h-2.1l-3.2-10.9h0v10.9h-1.6Z" transform="translate(-8 -171.2)"/><path class="cls-2" d="M253.1,220.8h-3.4l-.7,3.4h-1.8l3.3-14h2l3.2,14h-1.9Zm-.4-2-1.2-6.5h0l-1.3,6.5Z" transform="translate(-8 -171.2)"/><path class="cls-2" d="M256.9,210.2H259l3.3,11h0v-11H264v14h-2.1l-3.2-10.9h0v10.9h-1.6Z" transform="translate(-8 -171.2)"/><path class="cls-2" d="M266.1,210.2h2.6c3.1,0,4.7,2.4,4.7,7s-2,7-4.7,7h-2.6Zm1.8,12h.6c2,0,2.9-2,2.9-5s-.9-5-2.9-5h-.6Z" transform="translate(-8 -171.2)"/><path class="cls-2" d="M280.9,210.2h1.8v14h-1.8Z" transform="translate(-8 -171.2)"/><path class="cls-2" d="M284.8,221.5a3.2,3.2,0,0,0,2.1.9c.8,0,1.5-.6,1.5-2s-.4-1.4-1.3-2.1l-.9-.7a4.3,4.3,0,0,1-1.6-3.7c0-2.5,1.4-3.8,3.1-3.8a4.7,4.7,0,0,1,2.1.5v2.1a3.6,3.6,0,0,0-1.8-.6c-.9,0-1.4.7-1.4,1.6a2.1,2.1,0,0,0,1,1.9l1.1.8a4.1,4.1,0,0,1,1.7,3.8c0,2.8-1.4,4.2-3.3,4.2a3.4,3.4,0,0,1-2.2-.6Z" transform="translate(-8 -171.2)"/><path class="cls-2" d="M297.7,210.2h2.1l3.3,11h0v-11h1.6v14h-2.1l-3.2-10.9h0v10.9h-1.6Z" transform="translate(-8 -171.2)"/><path class="cls-2" d="M310.5,210c2,0,3.9,2.2,3.9,7.2s-1.9,7.2-3.9,7.2-3.9-2.2-3.9-7.2S308.4,210,310.5,210Zm0,12.4c1.1,0,2-1.4,2-5.2s-.9-5.2-2-5.2-2.1,1.4-2.1,5.2S309.3,222.4,310.5,222.4Z" transform="translate(-8 -171.2)"/><path class="cls-2" d="M317.6,212.3h-2.2v-2h6.2v2h-2.2v11.9h-1.8Z" transform="translate(-8 -171.2)"/><path class="cls-2" d="M328.7,210.2h3.1c1.7,0,2.9,1.1,2.9,3.7s-.8,3-1.9,3.3h0c.4.1.8.3,1.1,1.6l1.3,5.3h-1.9l-1-4.5c-.2-1.1-.7-1.5-1.4-1.5h-.4v6h-1.8Zm2.5,6.1c1,0,1.6-.7,1.6-2.1s-.6-2-1.6-2h-.7v4.1Z" transform="translate(-8 -171.2)"/><path class="cls-2" d="M336.7,210.2h5.2v2h-3.4V216h3.2v2h-3.2v4.1H342v2h-5.3Z" transform="translate(-8 -171.2)"/><path class="cls-2" d="M350.1,223.9a4,4,0,0,1-2.1.5c-3,0-4.5-3.1-4.5-7.2s1.5-7.2,4.4-7.2a4.7,4.7,0,0,1,2.2.6v2.3a3,3,0,0,0-1.9-.8c-1.5,0-2.8,1.4-2.8,5.1s1.3,5.1,2.8,5.1a2.4,2.4,0,0,0,1.9-.7Z" transform="translate(-8 -171.2)"/><path class="cls-2" d="M355.3,210c2,0,3.9,2.2,3.9,7.2s-1.9,7.2-3.9,7.2-3.9-2.2-3.9-7.2S353.3,210,355.3,210Zm0,12.4c1.1,0,2-1.4,2-5.2s-.9-5.2-2-5.2-2,1.4-2,5.2S354.2,222.4,355.3,222.4Z" transform="translate(-8 -171.2)"/><path class="cls-2" d="M368.8,212.5h0l-2.5,11.7H365l-2.3-11.7h0v11.7H361v-14h2.7l2,10.4h0l2.1-10.4h2.6v14h-1.6Z" transform="translate(-8 -171.2)"/><path class="cls-2" d="M380.4,212.5h0l-2.5,11.7h-1.3l-2.3-11.7h0v11.7h-1.6v-14h2.7l2,10.4h0l2.1-10.4H382v14h-1.6Z" transform="translate(-8 -171.2)"/><path class="cls-2" d="M384.2,210.2h5.2v2H386V216h3.2v2H386v4.1h3.5v2h-5.3Z" transform="translate(-8 -171.2)"/><path class="cls-2" d="M391.3,210.2h2.1l3.3,11h0v-11h1.6v14h-2.1L393,213.3h0v10.9h-1.6Z" transform="translate(-8 -171.2)"/><path class="cls-2" d="M400.5,210.2H403c3.1,0,4.7,2.4,4.7,7s-2,7-4.7,7h-2.6Zm1.8,12h.6c2,0,2.9-2,2.9-5s-.9-5-2.9-5h-.6Z" transform="translate(-8 -171.2)"/><path class="cls-2" d="M409.5,210.2h5.2v2h-3.4V216h3.2v2h-3.2v4.1h3.5v2h-5.3Z" transform="translate(-8 -171.2)"/><path class="cls-2" d="M416.6,210.2h2.6c3.1,0,4.7,2.4,4.7,7s-2,7-4.7,7h-2.6Zm1.8,12h.6c2,0,2.9-2,2.9-5s-.9-5-2.9-5h-.6Z" transform="translate(-8 -171.2)"/><path class="cls-2" d="M431.4,210.2h5v2h-3.2v3.8h3v2h-3v6.1h-1.8Z" transform="translate(-8 -171.2)"/><path class="cls-2" d="M441.5,210c2,0,3.9,2.2,3.9,7.2s-1.9,7.2-3.9,7.2-3.9-2.2-3.9-7.2S439.5,210,441.5,210Zm0,12.4c1.1,0,2-1.4,2-5.2s-.9-5.2-2-5.2-2.1,1.4-2.1,5.2S440.4,222.4,441.5,222.4Z" transform="translate(-8 -171.2)"/><path class="cls-2" d="M447.1,210.2h3.1c1.7,0,2.9,1.1,2.9,3.7s-.8,3-1.9,3.3h0c.4.1.8.3,1.1,1.6l1.3,5.3h-1.9l-1-4.5c-.2-1.1-.7-1.5-1.4-1.5h-.4v6h-1.8Zm2.5,6.1c1,0,1.6-.7,1.6-2.1s-.6-2-1.6-2h-.7v4.1Z" transform="translate(-8 -171.2)"/><path class="cls-2" d="M467.1,223.9a4,4,0,0,1-2.1.5c-3,0-4.5-3.1-4.5-7.2s1.5-7.2,4.4-7.2a4.7,4.7,0,0,1,2.2.6v2.3a3,3,0,0,0-1.9-.8c-1.5,0-2.8,1.4-2.8,5.1s1.3,5.1,2.8,5.1a2.4,2.4,0,0,0,1.9-.7Z" transform="translate(-8 -171.2)"/><path class="cls-2" d="M468.8,210.2h1.8v5.7h2.9v-5.7h1.8v14h-1.8V218h-2.9v6.2h-1.8Z" transform="translate(-8 -171.2)"/><path class="cls-2" d="M477.5,210.2h1.8v14h-1.8Z" transform="translate(-8 -171.2)"/><path class="cls-2" d="M481.5,210.2h1.8v11.9h3.2v2h-5Z" transform="translate(-8 -171.2)"/><path class="cls-2" d="M487.8,210.2h2.6c3.1,0,4.7,2.4,4.7,7s-2,7-4.7,7h-2.6Zm1.8,12h.6c2,0,2.9-2,2.9-5s-.9-5-2.9-5h-.6Z" transform="translate(-8 -171.2)"/><path class="cls-2" d="M496.8,210.2h3.1c1.7,0,2.9,1.1,2.9,3.7s-.8,3-1.9,3.3h0c.4.1.8.3,1.1,1.6l1.3,5.3h-1.9l-1-4.5c-.2-1.1-.7-1.5-1.4-1.5h-.4v6h-1.8Zm2.5,6.1c1,0,1.6-.7,1.6-2.1s-.6-2-1.6-2h-.7v4.1Z" transform="translate(-8 -171.2)"/><path class="cls-2" d="M504.8,210.2H510v2h-3.4V216h3.2v2h-3.2v4.1h3.5v2h-5.3Z" transform="translate(-8 -171.2)"/><path class="cls-2" d="M512,210.2h2.1l3.3,11h0v-11H519v14h-2.1l-3.2-10.9h0v10.9H512Z" transform="translate(-8 -171.2)"/><path class="cls-2" d="M528.6,210.2v9.1c0,2.3.5,3.1,1.5,3.1s1.5-.8,1.5-3.1v-9.1h1.8v9.1c0,3.7-1.5,5.1-3.3,5.1s-3.3-1.4-3.3-5.1v-9.1Z" transform="translate(-8 -171.2)"/><path class="cls-2" d="M535.6,210.2h2.1l3.3,11h0v-11h1.6v14h-2.1l-3.2-10.9h0v10.9h-1.6Z" transform="translate(-8 -171.2)"/><path class="cls-2" d="M544.8,210.2h2.6c3.1,0,4.7,2.4,4.7,7s-2,7-4.7,7h-2.6Zm1.8,12h.6c2,0,2.9-2,2.9-5s-.9-5-2.9-5h-.6Z" transform="translate(-8 -171.2)"/><path class="cls-2" d="M553.8,210.2H559v2h-3.4V216h3.2v2h-3.2v4.1h3.5v2h-5.3Z" transform="translate(-8 -171.2)"/><path class="cls-2" d="M560.9,210.2H564c1.7,0,2.9,1.1,2.9,3.7s-.8,3-1.9,3.3h0c.4.1.8.3,1.1,1.6l1.3,5.3h-1.9l-1-4.5c-.2-1.1-.7-1.5-1.4-1.5h-.4v6h-1.8Zm2.5,6.1c1,0,1.6-.7,1.6-2.1s-.6-2-1.6-2h-.7v4.1Z" transform="translate(-8 -171.2)"/><path class="cls-2" d="M249.7,234.1h-2.2v-2h6.2v2h-2.2V246h-1.8Z" transform="translate(-8 -171.2)"/><path class="cls-2" d="M255.1,232h1.8v5.7h2.9V232h1.8v14h-1.8v-6.2h-2.9V246h-1.8Z" transform="translate(-8 -171.2)"/><path class="cls-2" d="M263.8,232H269v2h-3.4v3.7h3.2v2h-3.2V244h3.5v2h-5.3Z" transform="translate(-8 -171.2)"/><path class="cls-2" d="M280.4,242.7H277l-.7,3.4h-1.8l3.3-14h2l3.2,14h-1.9Zm-.4-2-1.2-6.5h0l-1.3,6.5Z" transform="translate(-8 -171.2)"/><path class="cls-2" d="M288.1,238.2h3.2v7.3a4.4,4.4,0,0,1-2.7.7c-3.1,0-4.8-3-4.8-7.2s1.7-7.2,4.8-7.2a4.8,4.8,0,0,1,2.4.6v2.3a3.5,3.5,0,0,0-2.3-.9c-1.9,0-2.9,2.2-2.9,5.1s1,5.1,2.8,5.1a2.1,2.1,0,0,0,1-.3v-3.8h-1.5Z" transform="translate(-8 -171.2)"/><path class="cls-2" d="M293.4,232h5.2v2h-3.4v3.7h3.2v2h-3.2V244h3.5v2h-5.3Z" transform="translate(-8 -171.2)"/><path class="cls-2" d="M308.6,231.8c2,0,3.9,2.2,3.9,7.2s-1.9,7.2-3.9,7.2-3.9-2.2-3.9-7.2S306.6,231.8,308.6,231.8Zm0,12.4c1.1,0,2-1.4,2-5.2s-.9-5.2-2-5.2-2.1,1.4-2.1,5.2S307.5,244.3,308.6,244.3Z" transform="translate(-8 -171.2)"/><path class="cls-2" d="M314.3,232h5v2h-3.2v3.8h3v2h-3V246h-1.8Z" transform="translate(-8 -171.2)"/><path class="cls-2" d="M327.1,235l-1.3,1.7L325,235l2.4-3h1.5v14h-1.7Z" transform="translate(-8 -171.2)"/><path class="cls-2" d="M332,243.5a3.4,3.4,0,0,0,2,.7c1,0,1.8-.9,1.8-2.3a1.8,1.8,0,0,0-1.9-2.1h-.7v-1.9h.3c1.1,0,2.3-.4,2.3-2.1s-.8-1.9-1.6-1.9a3.6,3.6,0,0,0-1.9.7v-2.1a5.4,5.4,0,0,1,2.4-.6c1.7,0,2.9,1.2,2.9,3.5s-1.3,3.1-1.9,3.2h0c.9.4,2.1.9,2.1,3.4s-1.6,4.2-3.4,4.2a5.1,5.1,0,0,1-2.3-.6Z" transform="translate(-8 -171.2)"/><path class="cls-2" d="M339.6,243.4h1.7V246h-1.7Z" transform="translate(-8 -171.2)"/><path class="cls-2" d="M348,232h2.1l3.3,11h0V232h1.6v14h-2.1l-3.2-10.9h0V246H348Z" transform="translate(-8 -171.2)"/><path class="cls-2" d="M360.8,231.8c2,0,3.9,2.2,3.9,7.2s-1.9,7.2-3.9,7.2-3.9-2.2-3.9-7.2S358.7,231.8,360.8,231.8Zm0,12.4c1.1,0,2-1.4,2-5.2s-.9-5.2-2-5.2-2.1,1.4-2.1,5.2S359.6,244.3,360.8,244.3Z" transform="translate(-8 -171.2)"/><path class="cls-2" d="M377.2,245.7a4,4,0,0,1-2.1.5c-3,0-4.5-3.1-4.5-7.2s1.5-7.2,4.4-7.2a4.7,4.7,0,0,1,2.2.6v2.3a3,3,0,0,0-1.9-.8c-1.5,0-2.8,1.4-2.8,5.1s1.3,5.1,2.8,5.1a2.4,2.4,0,0,0,1.9-.7Z" transform="translate(-8 -171.2)"/><path class="cls-2" d="M382.5,231.8c2,0,3.9,2.2,3.9,7.2s-1.9,7.2-3.9,7.2-3.9-2.2-3.9-7.2S380.4,231.8,382.5,231.8Zm0,12.4c1.1,0,2-1.4,2-5.2s-.9-5.2-2-5.2-2.1,1.4-2.1,5.2S381.3,244.3,382.5,244.3Z" transform="translate(-8 -171.2)"/><path class="cls-2" d="M388,243.3a3.2,3.2,0,0,0,2.1.9c.8,0,1.5-.6,1.5-2s-.4-1.4-1.3-2.1l-.9-.7a4.3,4.3,0,0,1-1.6-3.7c0-2.5,1.4-3.8,3.1-3.8a4.7,4.7,0,0,1,2,.5v2.1a3.6,3.6,0,0,0-1.8-.6c-.9,0-1.4.7-1.4,1.6a2.1,2.1,0,0,0,1,1.9l1.1.8a4.1,4.1,0,0,1,1.7,3.8c0,2.8-1.4,4.2-3.3,4.2a3.4,3.4,0,0,1-2.2-.6Z" transform="translate(-8 -171.2)"/><path class="cls-2" d="M396.8,234.1h-2.2v-2h6.2v2h-2.2V246h-1.8Z" transform="translate(-8 -171.2)"/><path class="cls-2" d="M403.9,232v9.1c0,2.3.5,3.1,1.5,3.1s1.5-.8,1.5-3.1V232h1.8v9.1c0,3.7-1.5,5.1-3.3,5.1s-3.3-1.4-3.3-5.1V232Z" transform="translate(-8 -171.2)"/><path class="cls-2" d="M418.7,234.4h0L416.2,246h-1.3l-2.3-11.7h0V246h-1.6V232h2.7l2,10.4h0l2.1-10.4h2.6v14h-1.6Z" transform="translate(-8 -171.2)"/><path class="cls-2" d="M422.5,232h5.2v2h-3.4v3.7h3.2v2h-3.2V244h3.5v2h-5.3Z" transform="translate(-8 -171.2)"/><path class="cls-2" d="M429.5,243.3a3.2,3.2,0,0,0,2.1.9c.8,0,1.5-.6,1.5-2s-.4-1.4-1.3-2.1l-.9-.7a4.3,4.3,0,0,1-1.6-3.7c0-2.5,1.4-3.8,3.1-3.8a4.7,4.7,0,0,1,2,.5v2.1a3.6,3.6,0,0,0-1.8-.6c-.9,0-1.4.7-1.4,1.6a2.1,2.1,0,0,0,1,1.9l1.1.8a4.1,4.1,0,0,1,1.7,3.8c0,2.8-1.4,4.2-3.3,4.2a3.4,3.4,0,0,1-2.2-.6Z" transform="translate(-8 -171.2)"/><path class="cls-2" d="M444.8,231.8c2,0,3.9,2.2,3.9,7.2s-1.9,7.2-3.9,7.2-3.9-2.2-3.9-7.2S442.8,231.8,444.8,231.8Zm0,12.4c1.1,0,2-1.4,2-5.2s-.9-5.2-2-5.2-2.1,1.4-2.1,5.2S443.7,244.3,444.8,244.3Z" transform="translate(-8 -171.2)"/><path class="cls-2" d="M450.5,232h3.1c1.7,0,2.9,1.1,2.9,3.7s-.8,3-1.9,3.3h0c.4.1.8.3,1.1,1.6l1.3,5.3H455l-1-4.5c-.2-1.1-.7-1.5-1.4-1.5h-.4v6h-1.8Zm2.5,6.1c1,0,1.6-.7,1.6-2.1s-.6-2-1.6-2h-.7v4.1Z" transform="translate(-8 -171.2)"/><path class="cls-2" d="M470.8,234.4h0L468.3,246H467l-2.3-11.7h0V246H463V232h2.7l2,10.4h0l2.1-10.4h2.6v14h-1.6Z" transform="translate(-8 -171.2)"/><path class="cls-2" d="M479.5,242.7h-3.4l-.7,3.4h-1.8l3.3-14h2l3.2,14h-1.9Zm-.4-2-1.2-6.5h0l-1.3,6.5Z" transform="translate(-8 -171.2)"/><path class="cls-2" d="M483.2,243.3a3.2,3.2,0,0,0,2.1.9c.8,0,1.5-.6,1.5-2s-.4-1.4-1.3-2.1l-.9-.7a4.3,4.3,0,0,1-1.6-3.7c0-2.5,1.4-3.8,3.1-3.8a4.7,4.7,0,0,1,2.1.5v2.1a3.6,3.6,0,0,0-1.8-.6c-.9,0-1.4.7-1.4,1.6a2.1,2.1,0,0,0,1,1.9l1.1.8a4.1,4.1,0,0,1,1.7,3.8c0,2.8-1.4,4.2-3.3,4.2a3.4,3.4,0,0,1-2.2-.6Z" transform="translate(-8 -171.2)"/><path class="cls-2" d="M490.4,232h1.8V238h0l2.8-5.9h2.1l-3.3,6.6,3.6,7.4h-2.2l-3-6.6h0V246h-1.8Z" transform="translate(-8 -171.2)"/><path class="cls-2" d="M498.5,243.3a3.2,3.2,0,0,0,2.1.9c.8,0,1.5-.6,1.5-2s-.4-1.4-1.3-2.1l-.9-.7a4.3,4.3,0,0,1-1.6-3.7c0-2.5,1.4-3.8,3.1-3.8a4.7,4.7,0,0,1,2.1.5v2.1a3.6,3.6,0,0,0-1.8-.6c-.9,0-1.4.7-1.4,1.6a2.1,2.1,0,0,0,1,1.9l1.1.8a4.1,4.1,0,0,1,1.7,3.8c0,2.8-1.4,4.2-3.3,4.2a3.4,3.4,0,0,1-2.2-.6Z" transform="translate(-8 -171.2)"/><path class="cls-2" d="M515.2,242.7h-3.4l-.7,3.4h-1.8l3.3-14h2l3.2,14h-1.9Zm-.4-2-1.2-6.5h0l-1.3,6.5Z" transform="translate(-8 -171.2)"/><path class="cls-2" d="M518.9,232h1.8V244H524v2h-5Z" transform="translate(-8 -171.2)"/><path class="cls-2" d="M525.3,232h1.8V244h3.2v2h-5Z" transform="translate(-8 -171.2)"/><path class="cls-2" d="M535.3,231.8c2,0,3.9,2.2,3.9,7.2s-1.9,7.2-3.9,7.2-3.9-2.2-3.9-7.2S533.2,231.8,535.3,231.8Zm0,12.4c1.1,0,2-1.4,2-5.2s-.9-5.2-2-5.2-2.1,1.4-2.1,5.2S534.1,244.3,535.3,244.3Z" transform="translate(-8 -171.2)"/><path class="cls-2" d="M545.8,234.6h0L544.2,246h-2.1l-2-14h1.7l1.4,10.8h0l1.5-10.8h2.2l1.5,10.8h0l1.4-10.8h1.6l-2,14h-2.1Z" transform="translate(-8 -171.2)"/><path class="cls-2" d="M552.8,232H558v2h-3.4v3.7h3.2v2h-3.2V244h3.5v2h-5.3Z" transform="translate(-8 -171.2)"/><path class="cls-2" d="M559.9,232h2.6c3.1,0,4.7,2.4,4.7,7s-2,7-4.7,7h-2.6Zm1.8,12h.6c2,0,2.9-2,2.9-5s-.9-5-2.9-5h-.6Z" transform="translate(-8 -171.2)"/><path class="cls-2" d="M568.9,243.4h1.7V246h-1.7Z" transform="translate(-8 -171.2)"/></g></svg>