<?xml version="1.0" encoding="utf-8"?>
<!-- Generator: Adobe Illustrator 19.2.1, SVG Export Plug-In . SVG Version: 6.00 Build 0)  -->
<svg version="1.1" id="Layer_1" xmlns="http://www.w3.org/2000/svg" xmlns:xlink="http://www.w3.org/1999/xlink" x="0px" y="0px"
	 viewBox="0 0 1280 800" style="enable-background:new 0 0 1280 800;" xml:space="preserve">
<style type="text/css">
	.st0{fill:#FFAB1A;}
</style>
<g>
	<g>
		<path class="st0" d="M648.6,400.7c0-3-2.4-5.4-5.4-5.4c-3,0-5.4,2.4-5.4,5.4c0,3,2.4,5.4,5.4,5.4
			C646.2,406.1,648.6,403.6,648.6,400.7z M651.6,400.7c0,4.6-3.7,8.4-8.3,8.4c-4.6,0-8.3-3.8-8.3-8.4c0-1.3,0.3-2.4,0.8-3.5h-15.5
			v13.2c0,1.5,1.2,2.7,2.7,2.7h34c1.5,0,2.7-1.2,2.7-2.7v-13.2h-8.8C651.3,398.3,651.6,399.5,651.6,400.7z M656.9,388.8h-1l-0.7-2.2
			h-4.1l-0.7,2.2h-4.2l-1.6-2.9h-9.3l-1.6,2.9h-7.1l-0.3-1.3h-2l-0.3,1.3h-1c-1.5,0-2.7,1.2-2.7,2.7v4.8h16c1.5-2.4,4.1-4,7.1-4
			s5.6,1.6,7.1,4h9.3v-4.8C659.6,390,658.4,388.8,656.9,388.8z M641.7,388.5h-3.6v-2h3.6V388.5z"/>
	</g>
</g>
</svg>
