<?xml version="1.0" encoding="utf-8"?>
<!-- Generator: Adobe Illustrator 19.2.1, SVG Export Plug-In . SVG Version: 6.00 Build 0)  -->
<svg version="1.1" id="Layer_2" xmlns="http://www.w3.org/2000/svg" xmlns:xlink="http://www.w3.org/1999/xlink" x="0px" y="0px"
	 viewBox="0 0 1280 800" style="enable-background:new 0 0 1280 800;" xml:space="preserve">
<style type="text/css">
	.st0{fill:#FFAB1A;}
</style>
<g>
	<path class="st0" d="M627,381.9v3l16.9-2.9C643.9,382,627,381.9,627,381.9z"/>
	<polygon class="st0" points="646.3,382 651.3,382 651.2,408.3 	"/>
	<polygon class="st0" points="652.7,386.2 658.4,387.4 653.1,417.8 645.3,416.4 652.8,415.2 	"/>
	<path class="st0" d="M645.1,383.4l-23.6,4.1l5.4,30.6l23.6-4.3L645.1,383.4z M640.1,409.6c-0.1,0.3-0.2,0.5-0.3,0.8
		c-0.2,0.2-0.4,0.4-0.6,0.6c-0.2,0.2-0.5,0.3-0.8,0.3c-0.3,0.1-0.6,0.1-0.9,0c-0.3-0.1-0.6-0.2-0.8-0.3c-0.2-0.2-0.4-0.3-0.6-0.6
		c-0.2-0.2-0.3-0.5-0.3-0.8c-0.1-0.3-0.1-0.6,0-0.9c0.1-0.3,0.2-0.6,0.3-0.8c0.2-0.2,0.4-0.4,0.6-0.6c0.2-0.2,0.5-0.3,0.8-0.3
		c0.3-0.1,0.6-0.1,0.9,0c0.3,0.1,0.6,0.2,0.8,0.3c0.2,0.2,0.4,0.4,0.6,0.6c0.2,0.2,0.3,0.5,0.3,0.8
		C640.1,409,640.1,409.3,640.1,409.6z M641.3,395.6c-0.1,0.6-0.3,1.1-0.5,1.6c-0.2,0.5-0.5,0.9-0.8,1.2c-0.3,0.4-0.6,0.7-0.9,1
		c-0.3,0.3-0.5,0.6-0.7,0.9c-0.2,0.3-0.3,0.6-0.3,0.9l0.1,2.2l-2.4,0.5l-0.7-2.3c0,0,0-0.1,0-0.1c0,0,0-0.1,0-0.1
		c-0.1-0.4-0.1-0.8,0.1-1.2c0.1-0.4,0.4-0.7,0.6-1c0.3-0.3,0.6-0.7,0.9-1c0.3-0.3,0.6-0.7,0.9-1c0.3-0.4,0.5-0.8,0.6-1.2
		c0.1-0.4,0.2-0.9,0-1.4c-0.1-0.3-0.2-0.6-0.4-0.9c-0.2-0.2-0.4-0.4-0.7-0.6c-0.3-0.2-0.6-0.2-0.9-0.3s-0.7,0-1.1,0.1
		c-0.5,0.1-1,0.3-1.4,0.5c-0.4,0.2-0.7,0.4-0.9,0.6c-0.2,0.2-0.4,0.4-0.6,0.5c-0.2,0.2-0.3,0.2-0.5,0.3c-0.3,0.1-0.6,0-0.8-0.3
		l-1.2-1.3c0.3-0.4,0.6-0.7,0.9-1c0.3-0.3,0.7-0.6,1.1-0.9c0.4-0.3,0.9-0.5,1.4-0.7c0.5-0.2,1.1-0.4,1.7-0.5
		c0.8-0.2,1.6-0.2,2.4-0.1c0.7,0.1,1.4,0.3,2,0.6c0.6,0.3,1.1,0.8,1.5,1.3s0.7,1.2,0.8,2C641.4,394.4,641.4,395.1,641.3,395.6z"/>
</g>
</svg>
