<?xml version="1.0" encoding="utf-8"?>
<!-- Generator: Adobe Illustrator 16.0.0, SVG Export Plug-In . SVG Version: 6.00 Build 0)  -->
<!DOCTYPE svg PUBLIC "-//W3C//DTD SVG 1.1//EN" "http://www.w3.org/Graphics/SVG/1.1/DTD/svg11.dtd">
<svg version="1.1" id="Layer_1" xmlns="http://www.w3.org/2000/svg" xmlns:xlink="http://www.w3.org/1999/xlink" x="0px" y="0px"
	 width="224.31px" height="73.604px" viewBox="0 0 224.31 73.604" enable-background="new 0 0 224.31 73.604" xml:space="preserve">
<rect x="1.586" y="58.054" fill="#CC282B" width="221.987" height="15.551"/>
<g>
	<defs>
		<rect id="SVGID_1_" y="0" width="224.31" height="73.605"/>
	</defs>
	<clipPath id="SVGID_2_">
		<use xlink:href="#SVGID_1_"  overflow="visible"/>
	</clipPath>
	<path clip-path="url(#SVGID_2_)" fill="#FFFFFF" d="M144.146,45.933c-1.269-0.495-2.468-0.963-2.468-1.681
		c0-1.606,0.734-2.387,2.246-2.387c1.521,0,2.258,0.78,2.258,2.387c0,1.022,1.567,1.022,1.567,0c0-1.604-1.006-3.318-3.825-3.318
		c-2.81,0-3.812,1.714-3.812,3.319c0.01,1.88,2.056,2.678,3.858,3.382c1.285,0.501,2.498,0.974,2.498,1.721
		c0,0.549-0.183,2.34-2.545,2.34c-1.89,0-2.562-1.216-2.562-2.354c0-1.021-1.564-1.021-1.564,0c0,1.59,1.291,3.303,4.127,3.303
		c2.839,0,4.109-1.652,4.109-3.287C148.043,47.453,145.973,46.646,144.146,45.933"/>
	<path clip-path="url(#SVGID_2_)" fill="#FFFFFF" d="M150.735,41.251c-0.239,0-0.441,0.086-0.585,0.248
		c-0.126,0.143-0.194,0.332-0.194,0.534c0,0.39,0.267,0.784,0.779,0.784h0.015c0.238,0,0.439-0.087,0.584-0.249
		c0.125-0.142,0.195-0.333,0.195-0.535C151.529,41.646,151.261,41.251,150.735,41.251"/>
	<path clip-path="url(#SVGID_2_)" fill="#FFFFFF" d="M149.952,44.252v7.608c0,0.511,0.395,0.778,0.782,0.778
		c0.39,0,0.784-0.268,0.784-0.778v-7.608C151.519,43.231,149.952,43.231,149.952,44.252"/>
	<path clip-path="url(#SVGID_2_)" fill="#FFFFFF" d="M157.744,43.469h-0.071c-0.852,0-1.536,0.24-2.04,0.714
		c-0.069-0.952-1.564-0.929-1.564,0.069v7.607c0,1.022,1.567,1.022,1.567,0v-5.071c0-0.887,0.265-2.372,2.039-2.372h0.06
		c1.777,0,2.042,1.485,2.042,2.372l0.016,5.091c0.01,0.504,0.397,0.768,0.778,0.768c0.215,0,0.42-0.084,0.562-0.228
		c0.142-0.145,0.213-0.338,0.209-0.56v-5.071C161.341,44.771,159.929,43.469,157.744,43.469"/>
	<path clip-path="url(#SVGID_2_)" fill="#FFFFFF" d="M170.71,43.47c-0.388,0-0.784,0.268-0.794,0.782v0.46
		c-0.607-0.814-1.479-1.243-2.547-1.243c-2.458,0-4.11,1.844-4.11,4.588c0,2.742,1.652,4.587,4.11,4.587
		c1.068,0,1.939-0.429,2.547-1.243v0.46c0,1.01-0.618,3.101-2.53,3.116c-0.14,0-0.266,0.053-0.352,0.147
		c-0.076,0.085-0.119,0.198-0.119,0.318c0,0.23,0.163,0.466,0.471,0.466h0.001c2.536-0.017,4.095-2.369,4.095-4.048l0.015-7.59
		c0.004-0.227-0.069-0.423-0.212-0.569C171.14,43.556,170.93,43.47,170.71,43.47 M167.369,51.711c-2.362,0-2.545-2.797-2.545-3.654
		c0-0.854,0.183-3.641,2.545-3.641c2.363,0,2.547,2.786,2.547,3.641C169.916,48.914,169.732,51.711,167.369,51.711"/>
	<path clip-path="url(#SVGID_2_)" fill="#FFFFFF" d="M180.056,44.252v0.46c-0.607-0.814-1.478-1.243-2.547-1.243
		c-2.458,0-4.11,1.844-4.11,4.588c0,2.742,1.652,4.587,4.11,4.587c1.069,0,1.939-0.429,2.547-1.243v0.46
		c0,1.021,1.565,1.021,1.565,0v-7.608C181.621,43.231,180.056,43.231,180.056,44.252 M177.509,51.711
		c-2.362,0-2.545-2.797-2.545-3.654c0-0.854,0.183-3.641,2.545-3.641c2.363,0,2.547,2.786,2.547,3.641
		C180.056,48.914,179.872,51.711,177.509,51.711"/>
	<path clip-path="url(#SVGID_2_)" fill="#FFFFFF" d="M188.283,43.469c-1.063,0-1.934,0.42-2.545,1.221v-0.438
		c0-1.021-1.567-1.021-1.567,0v10.872c0,0.513,0.395,0.78,0.784,0.78c0.388,0,0.783-0.268,0.783-0.78v-3.7
		c0.611,0.8,1.482,1.22,2.545,1.22c2.459,0,4.111-1.845,4.111-4.587C192.395,45.312,190.742,43.469,188.283,43.469 M188.283,51.711
		c-2.362,0-2.545-2.797-2.545-3.654c0-0.854,0.183-3.641,2.545-3.641c2.361,0,2.545,2.786,2.545,3.641
		C190.828,48.914,190.645,51.711,188.283,51.711"/>
	<path clip-path="url(#SVGID_2_)" fill="#FFFFFF" d="M197.788,43.469c-2.459,0-4.111,1.844-4.111,4.588
		c0,2.742,1.652,4.587,4.111,4.587s4.112-1.845,4.112-4.587C201.9,45.312,200.247,43.469,197.788,43.469 M197.788,51.711
		c-2.361,0-2.545-2.797-2.545-3.654c0-0.854,0.184-3.641,2.545-3.641c2.362,0,2.545,2.786,2.545,3.641
		C200.333,48.914,200.15,51.711,197.788,51.711"/>
	<path clip-path="url(#SVGID_2_)" fill="#FFFFFF" d="M207.77,43.469c-0.987,0-1.803,0.393-2.387,1.14v-0.356
		c0-1.021-1.566-1.021-1.566,0v7.607c0,0.512,0.395,0.779,0.783,0.779s0.783-0.268,0.783-0.779v-3.932
		c0.006-0.827,0.198-3.527,2.387-3.527c0.301,0,0.457-0.234,0.457-0.466C208.227,43.704,208.07,43.469,207.77,43.469"/>
	<path clip-path="url(#SVGID_2_)" fill="#FFFFFF" d="M217.109,48.057c0-2.744-1.653-4.588-4.112-4.588
		c-2.458,0-4.11,1.844-4.11,4.588c0,2.743,1.652,4.587,4.11,4.587c1.782,0,3.171-1.002,3.621-1.989
		c0.122-0.259,0.113-0.522-0.028-0.744c-0.145-0.229-0.417-0.377-0.695-0.377c-0.303,0-0.553,0.168-0.687,0.459
		c-0.196,0.425-0.792,1.719-2.211,1.719c-1.868,0-2.373-1.729-2.503-2.871h5.831C216.757,48.84,217.109,48.487,217.109,48.057
		 M212.997,44.416c2.24,0,2.522,2.515,2.546,3.507l-5.09-0.013C210.476,46.924,210.757,44.416,212.997,44.416"/>
	<path clip-path="url(#SVGID_2_)" fill-rule="evenodd" clip-rule="evenodd" fill="#CC282B" d="M39.828,4.566
		c-0.712-0.451-1.186-0.323-1.244-0.11c-0.037,0.143,0.018,0.366,0.35,0.655c2.799,2.454,8.429,8.231,9.519,16.317
		c1.175,8.718-2.156,15.817-2.745,11.582c-0.261-1.878-0.469-3.792-1.012-5.818c-0.39-1.453-0.716-2.682-1.5-4.472
		c-0.229-0.523-0.55-1.094-0.802-1.475c-1.671-2.524-3.956-2.244-5.169,0.081c-2.134,4.101-1.42,26.341-9.109,25.2
		c-3.015-0.449-2.31-3.954-2.856-12.78c-1.023-16.511-10.999-17.378-9.854-18.053c1.388-0.817,4.69,0.819,10.355,1.036
		c3.473,0.132,8.49-0.468,9.527-2.146c0.987-1.603-0.263-4.586-3.862-7.276c-3.053-2.28-6.73-3.423-3.83-4.204
		c1.183-0.321,3.566-0.426,5.589-0.198c1.141,0.132,2.43,0.378,3.104,0.452c0.681,0.074,0.863-0.357-0.07-0.89
		c-2.039-1.036-3.668-1.522-6.024-1.98C16.447-2.19,3.148,6.841,0.487,20.657c-2.203,11.436,3.549,22.602,13.422,27.581
		c1.244,0.624,1.917,0.832,2.052,0.491c0.033-0.09-0.02-0.22-0.165-0.349c-1.074-0.964-7.252-4.867-9.877-11.635
		c-0.608-1.572-2.265-5.899-1.421-10.573c0.425-2.352,2.534-3.965,4.433-4.078c5.914-0.35,9.592,6.362,10.972,16.059
		c1.387,9.71,3.615,12.295,7.586,12.617c5.527,0.447,11.609-6.246,12.211-21.042c0.065-1.646,0.337-2.338,0.9-2.329
		c0.704,0.01,2.175,5.03,2.398,11.185c0.115,3.191,0.917,5.026,2.955,2.072c2.034-2.954,3.621-6.708,4.315-10.307
		C52.258,20.016,47.991,10.109,39.828,4.566 M17.791,8.752c0,0,2.594-2.051,4.567-2.009c1.208,0.025,4.035,1.635,5.492,2.591
		c0.817,0.54,2.216,2.009,0.542,2.696c-1.971,0.809-5.286,0.353-10.133-0.754C15.317,10.604,17.791,8.752,17.791,8.752"/>
</g>
<g>
	<defs>
		<path id="SVGID_3_" d="M18.259,11.276c-2.942-0.673-0.468-2.524-0.468-2.524s2.594-2.051,4.567-2.009
			c1.208,0.024,4.035,1.635,5.492,2.59c0.817,0.54,2.215,2.009,0.541,2.697c-0.688,0.282-1.541,0.41-2.565,0.411
			C23.918,12.441,21.413,11.997,18.259,11.276 M0.487,20.658c-2.202,11.436,3.549,22.602,13.422,27.58
			c1.243,0.625,1.917,0.832,2.052,0.492c0.033-0.09-0.019-0.22-0.165-0.348c-1.074-0.964-7.251-4.869-9.877-11.636
			c-0.608-1.571-2.265-5.898-1.422-10.572c0.426-2.353,2.536-3.964,4.435-4.079c5.914-0.349,9.591,6.362,10.971,16.059
			c1.387,9.711,3.615,12.296,7.586,12.618c5.527,0.447,11.609-6.246,12.211-21.043c0.065-1.645,0.337-2.337,0.9-2.328
			c0.704,0.01,2.175,5.03,2.398,11.186c0.115,3.189,0.917,5.025,2.955,2.071c2.034-2.954,3.622-6.708,4.315-10.308
			c1.99-10.333-2.277-20.24-10.44-25.783c-0.712-0.452-1.187-0.324-1.244-0.11c-0.037,0.142,0.018,0.365,0.35,0.654
			c2.799,2.455,8.429,8.232,9.519,16.317c1.175,8.719-2.156,15.818-2.746,11.583c-0.26-1.879-0.469-3.792-1.011-5.819
			c-0.39-1.452-0.716-2.682-1.501-4.471c-0.228-0.523-0.549-1.095-0.8-1.475c-1.672-2.525-3.958-2.244-5.17,0.081
			c-2.135,4.101-1.42,26.341-9.109,25.2c-3.015-0.449-2.309-3.954-2.856-12.78c-1.023-16.512-10.999-17.378-9.855-18.053
			c1.388-0.818,4.691,0.819,10.356,1.035c3.473,0.133,8.489-0.467,9.527-2.145c0.987-1.603-0.263-4.586-3.862-7.276
			c-3.054-2.28-6.73-3.423-3.83-4.204c1.183-0.322,3.566-0.427,5.589-0.198c1.141,0.132,2.43,0.377,3.105,0.451
			C36.97,3.431,37.152,3,36.219,2.467c-2.039-1.037-3.668-1.523-6.024-1.98c-1.629-0.317-3.252-0.47-4.851-0.47
			C13.444,0.018,2.832,8.479,0.487,20.658"/>
	</defs>
	<clipPath id="SVGID_4_">
		<use xlink:href="#SVGID_3_"  overflow="visible"/>
	</clipPath>
	
		<rect x="0.018" y="0.018" transform="matrix(-1 7.120688e-04 -7.120688e-04 -1 50.7901 50.7954)" clip-path="url(#SVGID_4_)" fill-rule="evenodd" clip-rule="evenodd" fill="#CC282B" width="50.736" height="50.777"/>
	<path clip-path="url(#SVGID_4_)" fill-rule="evenodd" clip-rule="evenodd" fill="#CC282B" d="M0.25,25.425
		C0.24,11.542,11.484,0.279,25.368,0.269C39.25,0.26,50.514,11.506,50.523,25.389c0.01,13.881-11.237,25.145-25.119,25.154
		C11.52,50.553,0.26,39.306,0.25,25.425"/>
	<path clip-path="url(#SVGID_4_)" fill-rule="evenodd" clip-rule="evenodd" fill="#CC282B" d="M0.49,25.425
		C0.48,11.675,11.618,0.521,25.368,0.511C39.119,0.501,50.27,11.639,50.28,25.39c0.01,13.748-11.126,24.902-24.876,24.912
		C11.653,50.312,0.5,39.173,0.49,25.425"/>
	<path clip-path="url(#SVGID_4_)" fill-rule="evenodd" clip-rule="evenodd" fill="#CC282B" d="M0.73,25.424
		C0.72,11.807,11.753,0.761,25.369,0.75C38.986,0.742,50.031,11.771,50.04,25.39c0.01,13.616-11.019,24.662-24.636,24.672
		C11.789,50.07,0.74,39.04,0.73,25.424"/>
	<path clip-path="url(#SVGID_4_)" fill-rule="evenodd" clip-rule="evenodd" fill="#CC282B" d="M0.972,25.424
		C0.961,11.941,11.884,1.003,25.369,0.993C38.853,0.984,49.791,11.907,49.8,25.389c0.009,13.484-10.914,24.42-24.397,24.43
		C11.919,49.829,0.981,38.908,0.972,25.424"/>
	<path clip-path="url(#SVGID_4_)" fill-rule="evenodd" clip-rule="evenodd" fill="#CC282B" d="M1.211,25.424
		C1.201,12.074,12.018,1.243,25.368,1.233c13.349-0.009,24.181,10.806,24.19,24.157c0.01,13.348-10.807,24.18-24.155,24.189
		C12.053,49.589,1.22,38.772,1.211,25.424"/>
	<path clip-path="url(#SVGID_4_)" fill-rule="evenodd" clip-rule="evenodd" fill="#CC282B" d="M1.455,25.424
		C1.446,12.206,12.152,1.484,25.369,1.474c13.217-0.009,23.94,10.698,23.95,23.916c0.009,13.216-10.699,23.939-23.916,23.949
		C12.186,49.348,1.464,38.64,1.455,25.424"/>
	<path clip-path="url(#SVGID_4_)" fill-rule="evenodd" clip-rule="evenodd" fill="#CC282B" d="M1.697,25.424
		C1.688,12.34,12.286,1.725,25.369,1.716c13.084-0.009,23.699,10.59,23.708,23.674c0.01,13.084-10.591,23.697-23.674,23.706
		C12.32,49.105,1.706,38.507,1.697,25.424"/>
	<path clip-path="url(#SVGID_4_)" fill-rule="evenodd" clip-rule="evenodd" fill="#CC282B" d="M1.937,25.424
		C1.928,12.473,12.417,1.966,25.37,1.957c12.95-0.009,23.454,10.483,23.464,23.434c0.009,12.949-10.481,23.455-23.431,23.465
		C12.451,48.864,1.946,38.374,1.937,25.424"/>
	<path clip-path="url(#SVGID_4_)" fill-rule="evenodd" clip-rule="evenodd" fill="#CC282B" d="M2.178,25.423
		C2.169,12.606,12.553,2.207,25.37,2.197c12.818-0.009,23.213,10.376,23.222,23.193c0.009,12.816-10.371,23.215-23.189,23.224
		C12.586,48.623,2.188,38.24,2.178,25.423"/>
	<path clip-path="url(#SVGID_4_)" fill-rule="evenodd" clip-rule="evenodd" fill="#CC282B" d="M2.42,25.423
		C2.411,12.738,12.687,2.447,25.37,2.438C38.056,2.429,48.343,12.705,48.352,25.39c0.009,12.683-10.263,22.974-22.95,22.983
		C12.719,48.382,2.429,38.106,2.42,25.423"/>
	<path clip-path="url(#SVGID_4_)" fill-rule="evenodd" clip-rule="evenodd" fill="#CC282B" d="M2.662,25.423
		C2.653,12.871,12.819,2.69,25.37,2.681c12.553-0.009,22.733,10.157,22.742,22.71c0.009,12.55-10.156,22.732-22.71,22.741
		C12.851,48.141,2.671,37.973,2.662,25.423"/>
	<path clip-path="url(#SVGID_4_)" fill-rule="evenodd" clip-rule="evenodd" fill="#CC282B" d="M2.9,25.423
		C2.891,13.004,12.95,2.931,25.37,2.922c12.414-0.009,22.492,10.05,22.5,22.469c0.009,12.417-10.054,22.492-22.468,22.5
		C12.982,47.901,2.909,37.841,2.9,25.423"/>
	<path clip-path="url(#SVGID_4_)" fill-rule="evenodd" clip-rule="evenodd" fill="#CC282B" d="M3.144,25.423
		C3.134,13.138,13.085,3.17,25.371,3.162c12.284-0.009,22.251,9.944,22.26,22.229c0.009,12.285-9.944,22.251-22.229,22.26
		C13.117,47.659,3.152,37.708,3.144,25.423"/>
	<path clip-path="url(#SVGID_4_)" fill-rule="evenodd" clip-rule="evenodd" fill="#CC282B" d="M3.385,25.422
		C3.376,13.271,13.217,3.413,25.37,3.405c12.151-0.009,22.012,9.835,22.02,21.987c0.009,12.15-9.837,22.007-21.989,22.016
		C13.248,47.417,3.394,37.573,3.385,25.422"/>
	<path clip-path="url(#SVGID_4_)" fill-rule="evenodd" clip-rule="evenodd" fill="#CC282B" d="M3.623,25.422
		C3.614,13.402,13.351,3.653,25.37,3.646c12.02-0.009,21.766,9.726,21.775,21.746c0.009,12.018-9.724,21.768-21.744,21.776
		C13.382,47.177,3.632,37.44,3.623,25.422"/>
	<path clip-path="url(#SVGID_4_)" fill-rule="evenodd" clip-rule="evenodd" fill="#CC282B" d="M3.867,25.422
		C3.858,13.536,13.487,3.896,25.371,3.886c11.884-0.008,21.526,9.619,21.535,21.505c0.008,11.886-9.62,21.528-21.504,21.538
		C13.517,46.937,3.875,37.307,3.867,25.422"/>
	<path clip-path="url(#SVGID_4_)" fill-rule="evenodd" clip-rule="evenodd" fill="#CC282B" d="M4.106,25.422
		C4.099,13.67,13.619,4.136,25.371,4.127c11.751-0.008,21.287,9.513,21.295,21.265c0.008,11.751-9.514,21.285-21.264,21.293
		C13.648,46.694,4.114,37.174,4.106,25.422"/>
	<path clip-path="url(#SVGID_4_)" fill-rule="evenodd" clip-rule="evenodd" fill="#CC282B" d="M4.348,25.422
		C4.34,13.803,13.751,4.377,25.371,4.368C36.99,4.36,46.416,13.773,46.423,25.392c0.009,11.618-9.403,21.043-21.022,21.053
		C13.781,46.453,4.356,37.04,4.348,25.422"/>
	<path clip-path="url(#SVGID_4_)" fill-rule="evenodd" clip-rule="evenodd" fill="#CC282B" d="M4.59,25.422
		C4.582,13.935,13.885,4.618,25.371,4.609c11.486-0.008,20.803,9.297,20.811,20.783c0.008,11.486-9.295,20.804-20.781,20.812
		C13.915,46.212,4.598,36.908,4.59,25.422"/>
</g>
<g>
	<defs>
		<rect id="SVGID_5_" y="0" width="224.31" height="73.605"/>
	</defs>
	<clipPath id="SVGID_6_">
		<use xlink:href="#SVGID_5_"  overflow="visible"/>
	</clipPath>
	<path clip-path="url(#SVGID_6_)" fill="#CC282B" d="M176.503,21.193c0.286-0.158,0.781-0.457,1.375-0.733
		c0.593-0.275,1.287-0.498,1.979-0.586c1.23-0.16,2.133-0.015,2.821,0.419c0.671,0.42,1.339,0.999,1.791,1.11
		c0.435,0.102,0.646-0.207,1.444-0.72c0.948-0.603,1.833-1.074,2.37-1.344c2.45-1.243,4.121-1.665,5.145-1.714
		c1.041-0.052,1.35,0.508,1.461,0.829c0.229,0.668-0.178,1.734-1.004,1.671c-1.02-0.08-2.504,0.466-2.985,0.623
		c-0.964,0.319-1.756,0.675-2.741,1.284c-0.953,0.586-1.922,1.506-2.271,1.768c-0.701,0.532-1.676,1.094-2.513,0.742
		c-0.267-0.112-0.654-0.715-0.819-1.059c-0.629-1.331-1.999-1.583-3.562-0.694c-1.622,0.972-3.188,2.01-3.85,2.296
		c-0.671,0.292-3.097,0.726-4.098-0.711c-2.056-2.96,1.251-7.792,5.388-7.466c1.173,0.092,1.552,0.318,1.893,0.796
		c0.384,0.535,0.259,1.681-0.339,1.642c-2.327-0.158-4.683,0.312-5.01,2.372c-0.004,0.027-0.046,0.757,0.253,0.923
		c0.452,0.26,1.007-0.001,1.318-0.15C175.098,22.222,175.919,21.513,176.503,21.193"/>
	<path clip-path="url(#SVGID_6_)" fill-rule="evenodd" clip-rule="evenodd" fill="#CC282B" d="M132.43,12.831
		c1.667,0.208,3.893,0.151,5.835,0.121c0.683-0.014,1.443-0.089,1.917,0.081c0.547,0.198,1.335,1.242,1.165,2.081
		c-0.243,1.217-1.686,0.788-2.914,0.588c-2.025-0.331-4.085-0.532-6.581-0.413c-0.466,0.022-1-0.039-1.339,0.042
		c-0.466,0.115-0.871,0.893-1.244,1.461c-0.772,1.169-1.321,2.224-1.862,3.49c-0.301,0.7-0.604,1.654-0.101,1.898
		c1.016,0.508,2.493-1.673,4.338-2.225c0.909-0.272,2.038-0.209,2.793,0.251c1.171,0.712,2.065,2.734,1.297,4.331
		c-0.152,0.311-0.521,0.741-0.961,0.834c-0.909,0.193-1.586-0.357-1.706-0.958c-0.117-0.566,0.326-0.995,0.287-1.374
		c-0.108-1.082-1.396-0.632-2.085-0.166c-1.181,0.802-2.497,2.234-4.162,2.421c-0.228,0.024-0.697,0.024-0.998-0.042
		c-0.782-0.173-1.43-0.906-1.589-1.624c-0.178-0.825-0.017-1.771,0.167-2.583c0.508-2.261,1.806-4.081,2.689-6.006
		c-1.464-0.367-2.844-0.086-4.425-0.129c-1.609-0.042-2.907-0.131-4.269-0.192c-2.669-0.128-5.468-0.092-8.21-0.206
		c-0.698-0.028-1.371,0.029-2.04,0.085c-0.832,0.071-1.611,0.36-2.42,0.169c-0.731-0.173-1.586-0.749-1.621-1.415
		c-0.035-0.549,0.446-1.178,0.828-1.336c0.561-0.227,2.025-0.082,2.959-0.083c5.414-0.003,9.721,0.162,14.726,0.53
		c1.31,0.094,2.838,0.228,4.395,0.235c0.534,0.003,1.443,0.144,1.799,0.052c0.443-0.113,1.134-1.231,1.459-1.585
		c0.516-0.565,2.052-2.205,2.788-0.876C134.013,11.483,132.834,12.347,132.43,12.831"/>
	<path clip-path="url(#SVGID_6_)" fill-rule="evenodd" clip-rule="evenodd" fill="#CC282B" d="M96.195,18.289
		c-0.898-0.363-1.977-0.389-3.019-0.043c-0.891,0.294-3.526,1.983-5.069,2.761c-0.787,0.395-3.284,1.845-4.387,2.093
		c-1.309,0.295-3.389,0.409-3.667-0.83c1.951,0.012,4.598-1.549,5.212-3.454c0.405-1.256,0.317-2.248-0.289-3.014
		c-0.522-0.661-1.78-0.889-2.801-0.562c-1.552,0.502-2.644,1.623-3.442,2.975c-0.172,0.286-0.475,0.837-0.691,1.362
		c-0.033,0.077-0.066,0.168-0.108,0.264c-0.033,0.083-0.022,0.093-0.321,0.02c-0.325-0.08-0.596-0.196-0.813-0.297
		c-0.468-0.224-0.861-0.662-1.041-1.167c-0.217-0.598-0.135-1.448-0.711-1.457c-0.574-0.009-0.914,1.101-0.79,1.919
		c0.098,0.631,0.531,1.507,1.017,1.975c0.674,0.65,1.227,0.965,2.134,1.307c0.045,0.413,0.173,0.866,0.28,1.132
		c0.482,1.215,1.148,1.87,2.49,2.248c1.25,0.348,2.952,0.205,4.112-0.173c0.781-0.253,3.101-1.398,3.992-1.85
		c0.899-0.45,3.07-1.751,3.921-2.149c0.58-0.27,1.604-0.967,2.347-0.882c0.336,0.039,0.706,0.194,0.71,0.542
		c0.008,0.579-0.684,0.928-1.125,1.209c-0.543,0.347-1.204,0.504-1.25,1.124c-0.044,0.645,0.528,1.024,1,1.084
		c0.37,0.048,0.93-0.09,1.377-0.293c0.667-0.3,1.552-1.022,1.915-1.625C98.112,20.954,97.541,18.833,96.195,18.289 M83.082,17.309
		c0.704-0.039,0.616,0.968,0.167,1.5c-0.533,0.639-1.828,1.32-2.956,1.253C80.356,19.195,81.866,17.379,83.082,17.309"/>
	<path clip-path="url(#SVGID_6_)" fill-rule="evenodd" clip-rule="evenodd" fill="#CC282B" d="M125.022,40.187
		c-0.479-0.006-1.137,0.067-1.255,0.075c-2.572,0.173-5.165,0.238-7.732,0.059c0,0-4.077-0.181-9.152-0.962
		c-4.18-0.644-7.98-1.465-11.315-2.28c-11.32-2.768-19.491-9.123-20.885-10.292c-2.767-2.32-5.54-4.778-7.298-7.912
		c0.504-1.039,0.973-2.138,1.831-2.791c1.446-1.096,3.132-1.76,4.752-2.543c1.976-0.955,4.017-1.986,5.811-3.254
		c0.265-0.184,0.528-0.371,0.781-0.572c0.476-0.378,1.038-0.833,1.318-1.391c0.315-0.618,0.521-1.552,0.584-2.417
		c0.131-1.817-0.315-2.891-1.047-4.167c-0.426-0.744-1.16-1.77-2.041-1.664c-0.221,0.027-0.66,0.338-1,0.54
		c-2.273,1.363-3.976,3.38-5.58,5.215c-1.976,2.26-3.822,4.439-5.371,7.005c-0.74,0.336-1.369,0.597-2.293,0.5
		c-0.714-0.076-1.19-0.528-1.706-0.581c-0.78-0.081-1.132,0.509-1.042,1.25c0.148,1.211,1.11,2.762,1.546,3.542
		c-1.107,2.305-3.017,4.976-4.246,7.418c-0.434,0.869-0.946,1.874-1.04,2.878c-0.2,2.178,2.389,3.152,3.293,1.454
		c0.061-0.422-0.107-0.808-0.125-1.208c-0.073-1.452,1.027-2.681,1.664-3.792c0.769-1.346,1.418-2.636,2.456-3.336
		c2.077,2.948,4.491,5.858,7.049,8.413c1.034,1.031,5.664,4.586,6.878,5.453c1.178,0.839,2.445,1.52,3.877,2.288
		c1.401,0.753,3.401,1.475,4.902,1.977c2.039,0.686,5.729,1.504,8.083,1.915c3.012,0.526,6.546,0.838,9.597,0.901
		c2.814,0.059,5.348,0.029,9.109-0.162c1.337-0.069,7.406-0.594,9.063-0.961c0.118-0.026,1.075-0.263,1.046-0.474
		C125.52,40.222,125.304,40.189,125.022,40.187 M76.087,7.245c0.375-0.413,0.816-0.895,1.25-1.293
		c0.576-0.529,1.26-1.389,2.208-1.168c-0.364,1.387-1.373,2.311-2.336,3.128c-0.97,0.828-2.167,1.457-3.329,2.085
		C74.402,9.142,75.229,8.191,76.087,7.245"/>
	<path clip-path="url(#SVGID_6_)" fill-rule="evenodd" clip-rule="evenodd" fill="#CC282B" d="M159.876,17.371
		c-3.657-2.923-7.038,1.924-8.537,4.278c-0.912,1.432-1.808,0.785-1.632-1.396c0.188-2.277,0.929-4.622,1.986-6.518
		c1.141-2.042,2.032-2.361,2.746-3.421c0.325-0.481,0.215-1.021,0.03-1.296c-0.489-0.718-1.205-0.817-1.93-0.535
		c-1.688,0.654-3.632,3.51-4.525,6.6c-1.29,4.457-1.847,10.259,1.919,10.955c3.338,0.619,5.105-8.541,8.394-6.373
		c1.575,1.04,1.847,3.171,3.596,4.562c4.182,3.326,10.282-7.021,7.915-9.017c-0.371-0.315-1.155-0.576-1.597-0.135
		c-0.288,0.289-0.181,0.807-0.257,1.356c-0.288,2.023-0.687,3.408-2.888,5.271C162.992,23.482,161.558,18.714,159.876,17.371"/>
	<path clip-path="url(#SVGID_6_)" fill="#CC282B" d="M105.021,21.245c0.288-0.158,0.781-0.457,1.375-0.733
		c0.595-0.275,1.291-0.498,1.98-0.586c1.231-0.16,2.131-0.015,2.821,0.419c0.67,0.42,1.338,0.999,1.793,1.11
		c0.43,0.102,0.643-0.207,1.442-0.72c0.945-0.603,1.833-1.074,2.366-1.344c2.454-1.243,4.122-1.665,5.146-1.714
		c1.041-0.052,1.35,0.508,1.461,0.829c0.231,0.668-0.178,1.734-1.004,1.671c-1.02-0.08-2.51,0.466-2.981,0.623
		c-0.967,0.319-1.759,0.675-2.747,1.284c-0.949,0.586-1.92,1.506-2.267,1.768c-0.702,0.532-1.679,1.094-2.517,0.742
		c-0.265-0.112-0.65-0.715-0.815-1.059c-0.632-1.331-1.999-1.583-3.565-0.694c-1.62,0.972-3.186,2.01-3.853,2.296
		c-0.667,0.292-3.092,0.726-4.09-0.711c-2.062-2.96,1.249-7.792,5.386-7.466c1.168,0.092,1.549,0.318,1.892,0.796
		c0.382,0.535,0.257,1.681-0.341,1.642c-2.325-0.158-4.68,0.312-5.011,2.372c-0.004,0.027-0.042,0.757,0.254,0.923
		c0.453,0.26,1.011-0.001,1.319-0.15C103.621,22.272,104.442,21.563,105.021,21.245"/>
	<path clip-path="url(#SVGID_6_)" fill="#CC282B" d="M204.056,9.942c0.646,1.218-2.595,3.877-4.199,7.183
		c-0.652,1.334-1.202,2.538-1.456,3.936c-0.343,1.888,0.095,1.947,0.878,1.124c1.587-1.67,4.298-4.962,9.144-5.433
		c1.373-0.066,2.098,0.124,2.505,0.308c1.006,0.441,0.343,2.019-0.68,2.004c-0.377-0.005-0.976-0.394-2.208-0.169
		c-2.396,0.44-3.039,2.007-2.708,3.228c0.458,1.721,3.026-0.403,4.625-1.403c1.367-0.852,2.151-1.9,2.926-2.91
		c0.207-0.674,0.307-1.278,0.568-2.074c0.823-2.522,1.453-4.072,3.092-6.054c1.574-1.904,3.393-0.679,2.32,1.726
		c-1.161,2.587-1.831,3.645-3.764,6.688c-0.231,0.366-0.484,0.829-0.699,1.221c-0.378,1.663,0.163,3.676,0.872,3.34
		c2.849-1.342,1.656,2.632-0.397,2.252c-1.612-0.299-2.159-2.666-2.254-3.939c-0.282,0.298-0.427,0.441-0.717,0.706
		c-2.499,2.239-6.064,4.762-8.125,2.848c-0.702-0.654-1.076-1.934-0.791-3.141c-1.355,1.236-1.632,1.794-2.449,2.669
		c-0.95,1.016-1.938,1.784-3.28,1.409c-1.823-0.51-1.702-2.805-1.312-4.677c0.384-1.654,1.04-3.342,1.945-5.053
		c1.033-1.809,2.271-3.576,3.783-5.634C202.229,9.339,203.563,9.015,204.056,9.942"/>
	<polygon clip-path="url(#SVGID_6_)" fill="#CC282B" points="220.272,9.991 222.049,9.99 222.049,10.259 221.308,10.26 
		221.309,12.117 221.005,12.117 221.003,10.26 220.272,10.261 	"/>
	<polygon clip-path="url(#SVGID_6_)" fill="#CC282B" points="224.024,9.991 224.308,9.991 224.311,12.114 224.006,12.114 
		224.005,10.463 223.353,11.283 223.296,11.283 222.634,10.464 222.635,12.115 222.329,12.116 222.328,9.992 222.616,9.992 
		223.323,10.864 	"/>
	<path clip-path="url(#SVGID_6_)" fill="#FFFFFF" d="M64.307,62.251c-0.359,0-0.728,0.231-0.781,0.675
		c-0.473-0.444-1.094-0.678-1.8-0.678c-2.016,0-3.37,1.502-3.37,3.736c0,2.235,1.354,3.737,3.37,3.737
		c0.719,0,1.324-0.228,1.801-0.677c0.053,0.441,0.422,0.674,0.78,0.674c0.391,0,0.786-0.271,0.786-0.784v-5.9
		C65.093,62.52,64.698,62.251,64.307,62.251 M63.52,65.984c0,0.623-0.129,2.655-1.794,2.655c-1.667,0-1.796-2.032-1.796-2.655
		c0-0.62,0.129-2.644,1.796-2.644C63.391,63.341,63.52,65.364,63.52,65.984"/>
	<path clip-path="url(#SVGID_6_)" fill="#FFFFFF" d="M86.311,64.214h-3.295c-0.309,0-0.544,0.233-0.544,0.541
		c0,0.138,0.049,0.269,0.138,0.367c0.101,0.112,0.246,0.174,0.406,0.174h2.504c-0.051,1.541-0.532,3.356-2.517,3.356
		c-2.092,0-2.532-1.985-2.532-3.651c0-1.364,0.329-3.65,2.532-3.65c1.141,0,1.749,0.985,2.108,1.728
		c0.141,0.282,0.392,0.444,0.689,0.444c0.276,0,0.549-0.151,0.696-0.384c0.142-0.228,0.155-0.506,0.032-0.763
		c-0.486-0.967-1.698-2.096-3.525-2.096c-2.57,0-4.105,1.765-4.105,4.721c0,3,1.496,4.721,4.105,4.721
		c2.602,0,4.094-1.721,4.094-4.721C87.097,64.567,86.745,64.214,86.311,64.214"/>
	<path clip-path="url(#SVGID_6_)" fill="#FFFFFF" d="M95.169,62.247c-2.015,0-3.369,1.502-3.369,3.738
		c0,2.233,1.354,3.736,3.369,3.736c1.457,0,2.599-0.828,2.973-1.646c0.121-0.258,0.108-0.524-0.035-0.749
		c-0.144-0.228-0.416-0.375-0.691-0.375c-0.304,0-0.563,0.171-0.696,0.459c-0.244,0.528-0.67,1.229-1.551,1.229
		c-1.188,0-1.602-1.006-1.736-1.867h4.318c0.434,0,0.786-0.354,0.786-0.787C98.538,63.749,97.185,62.247,95.169,62.247
		 M95.169,63.341c1.475,0,1.741,1.617,1.786,2.359l-3.572-0.008C93.428,64.952,93.694,63.341,95.169,63.341"/>
	<path clip-path="url(#SVGID_6_)" fill="#FFFFFF" d="M106.518,62.247h-0.034c-0.603,0-1.11,0.143-1.507,0.421
		c-0.151-0.307-0.471-0.418-0.705-0.418c-0.391,0-0.786,0.27-0.786,0.784v5.9c0,0.515,0.395,0.784,0.786,0.784
		s0.787-0.27,0.787-0.784V65c0-0.336,0.052-0.812,0.3-1.164c0.23-0.328,0.601-0.495,1.103-0.495c0.661,0,1.449,0.287,1.449,1.659
		l0.012,3.95c0.01,0.508,0.402,0.774,0.783,0.774c0.216,0,0.422-0.084,0.566-0.229c0.143-0.147,0.217-0.344,0.212-0.563V65
		C109.484,63.328,108.32,62.247,106.518,62.247"/>
	<path clip-path="url(#SVGID_6_)" fill="#FFFFFF" d="M116.94,63.329c0.311,0,0.544-0.232,0.544-0.541
		c0-0.308-0.233-0.541-0.544-0.541h-0.688v-0.982c0-0.516-0.396-0.784-0.787-0.784c-0.39,0-0.787,0.269-0.787,0.784v0.982h-0.197
		c-0.31,0-0.543,0.233-0.543,0.541c0,0.139,0.05,0.269,0.139,0.366c0.1,0.113,0.244,0.175,0.404,0.175h0.197v4.132
		c0.015,1.457,0.818,2.261,2.263,2.261c0.306,0,0.534-0.233,0.534-0.541c0-0.309-0.229-0.541-0.534-0.541
		c-0.568,0-0.673-0.365-0.688-1.184v-4.127H116.94z"/>
	<path clip-path="url(#SVGID_6_)" fill="#FFFFFF" d="M123.214,62.251c-0.391,0-0.786,0.269-0.786,0.783v5.9
		c0,0.515,0.396,0.784,0.786,0.784c0.392,0,0.786-0.27,0.786-0.784v-5.9C124,62.52,123.605,62.251,123.214,62.251"/>
	<path clip-path="url(#SVGID_6_)" fill="#FFFFFF" d="M123.214,60.414c-0.515,0-0.783,0.396-0.783,0.787
		c0,0.2,0.068,0.39,0.194,0.533c0.146,0.163,0.355,0.254,0.589,0.254c0.521,0,0.796-0.396,0.796-0.787
		c0-0.202-0.069-0.391-0.195-0.534C123.666,60.502,123.459,60.414,123.214,60.414"/>
	<path clip-path="url(#SVGID_6_)" fill="#FFFFFF" d="M132.47,62.247h-0.033c-0.604,0-1.11,0.143-1.506,0.421
		c-0.152-0.307-0.472-0.418-0.705-0.418c-0.392,0-0.787,0.27-0.787,0.784v5.9c0,0.515,0.396,0.784,0.787,0.784
		c0.391,0,0.786-0.27,0.786-0.784V65c0-0.336,0.053-0.811,0.302-1.165c0.229-0.327,0.6-0.494,1.101-0.494
		c0.661,0,1.45,0.287,1.45,1.659l0.012,3.95c0.01,0.508,0.401,0.774,0.782,0.774c0.216,0,0.422-0.084,0.565-0.229
		c0.145-0.147,0.219-0.343,0.214-0.563V65C135.438,63.328,134.272,62.247,132.47,62.247"/>
	<path clip-path="url(#SVGID_6_)" fill="#FFFFFF" d="M146.345,62.248c-0.359,0-0.731,0.232-0.788,0.679
		c-0.475-0.444-1.096-0.679-1.803-0.679c-2.016,0-3.369,1.502-3.369,3.736c0,2.235,1.354,3.737,3.369,3.737
		c0.701,0,1.318-0.231,1.791-0.668c-0.041,0.638-0.421,2.108-1.78,2.118c-0.311,0-0.543,0.232-0.543,0.542
		c0,0.135,0.049,0.266,0.139,0.367c0.101,0.111,0.246,0.174,0.406,0.174c2.079-0.015,3.354-1.943,3.354-3.32l0.014-5.886
		c0.005-0.223-0.069-0.419-0.217-0.567C146.773,62.334,146.564,62.248,146.345,62.248 M145.549,65.984
		c0,0.623-0.129,2.655-1.795,2.655c-1.667,0-1.796-2.032-1.796-2.655c0-0.62,0.129-2.644,1.796-2.644
		C145.42,63.341,145.549,65.364,145.549,65.984"/>
	<path clip-path="url(#SVGID_6_)" fill="#FFFFFF" d="M168.4,63.303c0.008-0.931-0.265-1.704-0.791-2.234
		c-0.517-0.522-1.253-0.788-2.185-0.788l-3.208,0.013c-0.434,0-0.786,0.353-0.786,0.787l-0.013,7.854
		c0,0.514,0.396,0.784,0.787,0.784c0.391,0,0.786-0.271,0.786-0.784V66.23h2.334c0.828,0.846,1.34,1.802,1.519,2.839
		c0.06,0.391,0.364,0.652,0.756,0.652c0.241,0,0.473-0.105,0.622-0.281c0.146-0.172,0.203-0.399,0.162-0.64
		c-0.224-1.376-1.163-2.278-1.755-2.828C167.684,65.495,168.41,64.405,168.4,63.303 M166.826,63.303
		c0.008,0.431-0.129,1.081-0.532,1.492c-0.233,0.235-0.525,0.354-0.868,0.354l-2.435-0.01v-3.766l2.435-0.012
		c0.446,0,0.771,0.109,0.994,0.335C166.796,62.078,166.835,62.755,166.826,63.303"/>
	<path clip-path="url(#SVGID_6_)" fill="#FFFFFF" d="M176.472,62.247c-2.016,0-3.368,1.502-3.368,3.737s1.353,3.737,3.368,3.737
		c1.459,0,2.6-0.829,2.973-1.646c0.122-0.258,0.109-0.523-0.034-0.749c-0.145-0.228-0.418-0.376-0.691-0.376
		c-0.305,0-0.564,0.172-0.696,0.459c-0.244,0.528-0.668,1.23-1.551,1.23c-1.188,0-1.602-1.005-1.735-1.868h4.317
		c0.433,0,0.785-0.353,0.785-0.787C179.839,63.749,178.486,62.247,176.472,62.247 M178.257,65.7l-3.57-0.009
		c0.045-0.74,0.311-2.35,1.785-2.35C177.945,63.342,178.212,64.958,178.257,65.7"/>
	<path clip-path="url(#SVGID_6_)" fill="#FFFFFF" d="M187.394,65.16c-0.479-0.171-1.277-0.457-1.277-0.663
		c0-0.194,0.05-1.168,1.057-1.168c0.92,0,1.058,0.732,1.058,1.168c0,0.515,0.396,0.783,0.786,0.783c0.392,0,0.786-0.269,0.786-0.783
		c0-1.091-0.922-2.25-2.63-2.25c-1.625,0-2.631,1.168-2.631,2.25c0.007,1.373,1.485,1.899,2.673,2.322
		c0.472,0.168,1.261,0.448,1.261,0.653c0,0.532-0.226,1.167-1.303,1.167c-0.865,0-1.303-0.394-1.303-1.167
		c0-0.515-0.397-0.784-0.788-0.784c-0.39,0-0.786,0.27-0.786,0.784c0,1.119,0.89,2.249,2.877,2.249c1.889,0,2.877-1.131,2.877-2.248
		C190.058,66.114,188.582,65.587,187.394,65.16"/>
	<path clip-path="url(#SVGID_6_)" fill="#FFFFFF" d="M197.873,62.248c-2.015,0-3.367,1.502-3.367,3.736
		c0,2.235,1.353,3.737,3.367,3.737c2.016,0,3.368-1.502,3.368-3.737C201.241,63.75,199.889,62.248,197.873,62.248 M199.669,65.984
		c0,0.623-0.129,2.655-1.796,2.655c-1.666,0-1.795-2.032-1.795-2.655c0-0.62,0.129-2.644,1.795-2.644
		C199.54,63.341,199.669,65.364,199.669,65.984"/>
	<path clip-path="url(#SVGID_6_)" fill="#FFFFFF" d="M209.435,62.247c-0.665,0-1.231,0.209-1.687,0.621
		c-0.077-0.424-0.446-0.618-0.772-0.618c-0.391,0-0.785,0.27-0.785,0.784v5.9c0,0.515,0.395,0.784,0.785,0.784
		c0.392,0,0.787-0.27,0.787-0.784v-3.05c0.005-0.6,0.141-2.556,1.672-2.556c0.306,0,0.534-0.232,0.534-0.541
		C209.969,62.48,209.74,62.247,209.435,62.247"/>
	<path clip-path="url(#SVGID_6_)" fill="#FFFFFF" d="M216.446,68.64c-0.569,0-0.673-0.365-0.688-1.184v-4.127h0.688
		c0.311,0,0.543-0.232,0.543-0.541c0-0.308-0.232-0.541-0.543-0.541h-0.688v-0.982c0-0.516-0.397-0.784-0.788-0.784
		c-0.39,0-0.786,0.269-0.786,0.784v0.982h-0.198c-0.31,0-0.543,0.233-0.543,0.541c0,0.139,0.05,0.269,0.139,0.366
		c0.101,0.112,0.245,0.175,0.404,0.175h0.198v4.133c0.014,1.457,0.818,2.26,2.262,2.26c0.306,0,0.534-0.233,0.534-0.541
		C216.98,68.872,216.752,68.64,216.446,68.64"/>
	<path clip-path="url(#SVGID_6_)" fill="#FFFFFF" d="M184.828,32.815c0,0.525-0.792,0.525-0.792,0c0-0.692-0.218-1.583-1.505-1.583
		c-1.295,0-1.494,0.891-1.494,1.583c0,1.178,3.979,1.197,3.969,3.187c0,1.059-0.862,1.959-2.475,1.959
		c-1.622,0-2.484-0.949-2.484-1.969c0-0.525,0.792-0.525,0.792,0c0,0.703,0.406,1.563,1.692,1.563c1.276,0,1.683-0.83,1.683-1.553
		c0-1.208-3.959-1.208-3.969-3.187c0-1.049,0.664-1.979,2.286-1.979C184.144,30.836,184.828,31.766,184.828,32.815"/>
	<path clip-path="url(#SVGID_6_)" fill="#FFFFFF" d="M186.807,35.586c0.087,0.999,0.529,1.98,1.666,1.98
		c0.891,0,1.286-0.743,1.465-1.129c0.218-0.474,0.939-0.148,0.712,0.337c-0.258,0.564-1.089,1.187-2.177,1.187
		c-1.505,0-2.475-1.117-2.475-2.771c0-1.653,0.97-2.77,2.475-2.77c1.504,0,2.475,1.117,2.475,2.77c0,0.219-0.18,0.396-0.396,0.396
		H186.807z M186.79,35.191l3.365,0.01c0-1.129-0.406-2.376-1.683-2.376s-1.683,1.247-1.683,2.365V35.191z"/>
	<path clip-path="url(#SVGID_6_)" fill="#FFFFFF" d="M192.336,32.815c0-0.524,0.792-0.524,0.792,0v0.194
		c0.278-0.358,0.722-0.594,1.385-0.589c1.346-0.01,2.177,0.771,2.177,1.979v3.167c0.01,0.524-0.771,0.534-0.782,0.009l-0.01-3.176
		c0-0.773-0.315-1.584-1.385-1.574c-1.079-0.01-1.385,0.801-1.385,1.574v3.167c0,0.524-0.792,0.524-0.792,0V32.815z"/>
	<path clip-path="url(#SVGID_6_)" fill="#FFFFFF" d="M199.068,32.815v3.562c0.011,0.516,0.04,1.189,0.792,1.189
		c0.258,0,0.258,0.395,0,0.395c-1,0-1.573-0.534-1.584-1.573v-0.011v-3.562h-0.395c-0.269,0-0.269-0.395,0-0.395h0.395v-1.03
		c0-0.524,0.792-0.524,0.792,0v1.03h0.792c0.268,0,0.268,0.395,0,0.395H199.068z"/>
	<path clip-path="url(#SVGID_6_)" fill="#FFFFFF" d="M201.049,35.189c0-1.653,0.97-2.77,2.476-2.77c1.504,0,2.474,1.117,2.474,2.77
		c0,1.654-0.97,2.771-2.474,2.771C202.019,37.961,201.049,36.844,201.049,35.189 M201.841,35.189c0,1.119,0.396,2.376,1.684,2.376
		c1.285,0,1.682-1.257,1.682-2.376c0-1.118-0.406-2.365-1.682-2.365C202.247,32.825,201.841,34.072,201.841,35.189"/>
	<path clip-path="url(#SVGID_6_)" fill="#FFFFFF" d="M210.949,33.993c0,0.524-0.792,0.524-0.792,0c0-0.475-0.197-1.178-1.088-1.178
		c-0.892,0-1.089,0.753-1.089,1.178c0,0.802,3.177,0.811,3.167,2.395c0,0.723-0.623,1.574-2.078,1.574s-2.079-0.783-2.079-1.574
		c0-0.525,0.792-0.525,0.792,0c0,0.494,0.198,1.178,1.287,1.178c1.088,0,1.286-0.733,1.286-1.168v-0.01
		c0-0.801-3.157-0.792-3.167-2.395c0-0.743,0.692-1.573,1.881-1.573C210.257,32.419,210.949,33.182,210.949,33.993"/>
	<path clip-path="url(#SVGID_6_)" fill="#FFFFFF" d="M212.139,35.189c0-1.653,0.97-2.77,2.475-2.77c0.815,0,1.356,0.406,1.682,0.999
		v-0.604c0-0.524,0.793-0.524,0.793,0v4.751c0,0.524-0.793,0.524-0.793,0v-0.604c-0.325,0.592-0.866,0.999-1.682,0.999
		C213.108,37.961,212.139,36.844,212.139,35.189 M212.931,35.189c0,1.119,0.396,2.376,1.683,2.376c1.286,0,1.682-1.257,1.682-2.376
		c0-1.118-0.405-2.365-1.682-2.365C213.336,32.825,212.931,34.072,212.931,35.189"/>
</g>
</svg>
