<?xml version="1.0" encoding="utf-8"?>
<!-- Generator: Adobe Illustrator 19.2.1, SVG Export Plug-In . SVG Version: 6.00 Build 0)  -->
<svg version="1.1" id="Layer_1" xmlns="http://www.w3.org/2000/svg" xmlns:xlink="http://www.w3.org/1999/xlink" x="0px" y="0px"
	 viewBox="0 0 1280 800" style="enable-background:new 0 0 1280 800;" xml:space="preserve">
<style type="text/css">
	.st0{fill:#E5E5CF;}
</style>
<g>
	<g>
		<g>
			<path class="st0" d="M646.9,400.9c0-2.4-1.9-4.3-4.2-4.3s-4.2,1.9-4.2,4.3s1.9,4.3,4.2,4.3S646.9,403.3,646.9,400.9z M649.2,401
				c0,3.7-2.9,6.7-6.6,6.7c-3.6,0-6.6-3-6.6-6.7c0-1,0.2-2,0.6-2.8h-12.2v10.5c0,1.2,0.9,2.2,2.1,2.2h26.8c1.2,0,2.1-1,2.1-2.2
				v-10.5h-6.9C649,399,649.2,400,649.2,401z M653.4,391.5h-0.8l-0.5-1.7h-3.3l-0.5,1.7H645l-1.3-2.3h-7.3l-1.3,2.3h-5.6l-0.3-1.1
				h-1.6l-0.3,1.1h-0.8c-1.2,0-2.1,1-2.1,2.2v3.9H637c1.2-1.9,3.2-3.2,5.6-3.2c2.3,0,4.4,1.3,5.6,3.2h7.3v-3.9
				C655.5,392.4,654.6,391.5,653.4,391.5z M641.4,391.2h-2.8v-1.6h2.8V391.2z"/>
		</g>
	</g>
	<path class="st0" d="M640,432c-17.6,0-32-14.4-32-32s14.4-32,32-32s32,14.4,32,32S657.6,432,640,432z M640,369
		c-17.1,0-31,13.9-31,31s13.9,31,31,31s31-13.9,31-31S657.1,369,640,369z"/>
</g>
<g>
	<path class="st0" d="M586.7,448.2c0.3,0,0.6,0,0.8-0.1s0.4-0.1,0.6-0.2c0.2-0.1,0.3-0.2,0.5-0.2c0.1-0.1,0.2-0.2,0.3-0.2
		c0.1-0.1,0.2-0.1,0.2-0.2c0.1-0.1,0.1-0.1,0.2-0.1h0.1c0,0,0.1,0,0.1,0.1l0.5,0.6c-0.4,0.5-0.9,0.8-1.5,1.1s-1.2,0.4-2,0.4
		c-0.6,0-1.1-0.1-1.6-0.3c-0.5-0.2-0.9-0.5-1.2-0.9s-0.6-0.8-0.8-1.4c-0.2-0.5-0.3-1.1-0.3-1.8c0-0.9,0.1-1.7,0.4-2.4
		c0.3-0.7,0.6-1.3,1.1-1.9c0.5-0.5,1-0.9,1.7-1.2s1.3-0.4,2.1-0.4c0.4,0,0.7,0,1,0.1s0.6,0.1,0.8,0.3s0.5,0.3,0.6,0.4
		s0.4,0.3,0.5,0.5l-0.4,0.5l-0.1,0.1c0,0-0.1,0-0.2,0c-0.1,0-0.2,0-0.3-0.1s-0.2-0.2-0.4-0.3c-0.2-0.1-0.4-0.2-0.6-0.3
		c-0.3-0.1-0.6-0.1-1-0.1c-0.5,0-1,0.1-1.5,0.3c-0.5,0.2-0.9,0.5-1.2,0.9s-0.6,0.9-0.8,1.5s-0.3,1.2-0.3,1.9c0,0.5,0.1,1,0.2,1.4
		c0.1,0.4,0.3,0.8,0.6,1c0.2,0.3,0.5,0.5,0.9,0.7C586,448.2,586.3,448.2,586.7,448.2z"/>
	<path class="st0" d="M591.2,449.3l1.3-10.3h1.2l-1.3,10.3H591.2z"/>
	<path class="st0" d="M596.7,442.2l-0.9,7.1h-1.2l0.9-7.1H596.7z M597.1,439.9c0,0.1,0,0.2-0.1,0.3c0,0.1-0.1,0.2-0.2,0.3
		c-0.1,0.1-0.2,0.1-0.3,0.2c-0.1,0-0.2,0.1-0.3,0.1s-0.2,0-0.3-0.1c-0.1,0-0.2-0.1-0.3-0.2s-0.1-0.2-0.2-0.3c0-0.1-0.1-0.2-0.1-0.3
		c0-0.1,0-0.2,0.1-0.3c0-0.1,0.1-0.2,0.2-0.3s0.2-0.1,0.3-0.2c0.1,0,0.2-0.1,0.3-0.1s0.2,0,0.3,0.1s0.2,0.1,0.3,0.2s0.1,0.2,0.2,0.3
		C597.1,439.7,597.1,439.8,597.1,439.9z"/>
	<path class="st0" d="M602.4,448.6c-0.2,0.2-0.4,0.3-0.7,0.4c-0.2,0.1-0.4,0.2-0.7,0.2c-0.2,0-0.5,0.1-0.8,0.1
		c-0.4,0-0.8-0.1-1.1-0.2s-0.6-0.3-0.8-0.6c-0.2-0.3-0.4-0.6-0.5-0.9c-0.1-0.4-0.2-0.8-0.2-1.2c0-0.6,0.1-1.1,0.3-1.7s0.4-1,0.8-1.4
		s0.7-0.7,1.1-1c0.4-0.2,0.9-0.4,1.5-0.4c0.5,0,0.9,0.1,1.2,0.2s0.6,0.4,0.8,0.7l-0.4,0.5l-0.1,0.1h-0.1c-0.1,0-0.1,0-0.2-0.1
		c-0.1-0.1-0.1-0.1-0.2-0.2c-0.1-0.1-0.2-0.1-0.4-0.2s-0.3-0.1-0.6-0.1s-0.6,0.1-0.9,0.3c-0.3,0.2-0.5,0.4-0.8,0.7s-0.4,0.7-0.5,1.1
		s-0.2,0.9-0.2,1.3c0,0.3,0,0.6,0.1,0.8c0.1,0.2,0.2,0.4,0.3,0.6s0.3,0.3,0.5,0.4s0.4,0.1,0.7,0.1c0.2,0,0.4,0,0.6-0.1
		c0.2,0,0.3-0.1,0.4-0.2c0.1-0.1,0.2-0.1,0.3-0.2s0.2-0.1,0.3-0.2s0.1-0.1,0.2-0.2c0.1,0,0.1-0.1,0.2-0.1c0.1,0,0.2,0,0.2,0.1
		l0.3,0.4C602.8,448.2,602.6,448.5,602.4,448.6z"/>
	<path class="st0" d="M606.4,438.9l-0.7,6.1h0.2c0.1,0,0.2,0,0.2,0c0.1,0,0.1-0.1,0.2-0.2l2.3-2.4c0.1-0.1,0.1-0.1,0.2-0.2
		c0.1,0,0.2-0.1,0.3-0.1h1.1l-2.7,2.8c-0.1,0.1-0.1,0.1-0.2,0.2c-0.1,0.1-0.1,0.1-0.2,0.2c0.1,0.1,0.1,0.1,0.2,0.2
		c0.1,0.1,0.1,0.2,0.2,0.2l2.1,3.5h-1.1c-0.1,0-0.2,0-0.2-0.1c-0.1,0-0.1-0.1-0.2-0.2l-1.8-2.9c-0.1-0.1-0.1-0.2-0.2-0.2
		c-0.1,0-0.2,0-0.3,0h-0.2l-0.4,3.4H604l1.3-10.3H606.4z"/>
	<path class="st0" d="M613.9,447.9v-0.1c0,0,0-0.1,0-0.2s0-0.2,0-0.3c0-0.1,0-0.3,0.1-0.5l0.4-3.5h-0.8c-0.1,0-0.1,0-0.2-0.1
		c0,0-0.1-0.1-0.1-0.2c0,0,0,0,0-0.1v-0.1c0-0.1,0-0.1,0-0.2s0-0.1,0-0.2l1.1-0.1l0.5-2.2c0-0.1,0.1-0.1,0.1-0.2
		c0.1,0,0.1-0.1,0.2-0.1h0.7l-0.3,2.4h1.9l-0.1,0.9h-1.9l-0.4,3.5c0,0.2,0,0.3-0.1,0.5c0,0.1,0,0.2,0,0.3s0,0.1,0,0.1s0,0,0,0.1
		c0,0.2,0.1,0.4,0.2,0.5c0.1,0.1,0.3,0.2,0.5,0.2c0.1,0,0.2,0,0.3-0.1c0.1,0,0.2-0.1,0.2-0.1s0.1-0.1,0.2-0.1l0.1-0.1h0.1
		c0,0,0,0,0.1,0.1l0.3,0.6c-0.2,0.2-0.5,0.4-0.8,0.5s-0.6,0.2-0.9,0.2c-0.5,0-0.8-0.1-1.1-0.4C614.1,448.8,613.9,448.4,613.9,447.9z
		"/>
	<path class="st0" d="M620.6,449.4c-0.4,0-0.7-0.1-1.1-0.2s-0.6-0.3-0.8-0.6c-0.2-0.3-0.4-0.6-0.5-0.9c-0.1-0.4-0.2-0.8-0.2-1.2
		c0-0.6,0.1-1.2,0.3-1.7s0.4-1,0.8-1.4c0.3-0.4,0.7-0.7,1.1-0.9c0.4-0.2,0.9-0.3,1.4-0.3c0.4,0,0.7,0.1,1.1,0.2
		c0.3,0.1,0.6,0.3,0.8,0.6c0.2,0.3,0.4,0.6,0.5,0.9c0.1,0.4,0.2,0.8,0.2,1.2c0,0.6-0.1,1.2-0.3,1.7s-0.4,1-0.8,1.4s-0.7,0.7-1.2,0.9
		C621.6,449.2,621.1,449.4,620.6,449.4z M620.7,448.4c0.3,0,0.7-0.1,0.9-0.3c0.3-0.2,0.5-0.4,0.7-0.7c0.2-0.3,0.3-0.7,0.5-1.1
		s0.2-0.8,0.2-1.3c0-0.7-0.1-1.1-0.4-1.5c-0.3-0.3-0.6-0.5-1.1-0.5c-0.3,0-0.7,0.1-0.9,0.3c-0.3,0.2-0.5,0.4-0.7,0.7
		c-0.2,0.3-0.3,0.7-0.5,1.1c-0.1,0.4-0.2,0.8-0.2,1.3c0,0.7,0.1,1.1,0.4,1.5C619.9,448.2,620.3,448.4,620.7,448.4z"/>
	<path class="st0" d="M628.5,447.9v-0.1c0,0,0-0.1,0-0.2s0-0.2,0-0.3c0-0.1,0-0.3,0.1-0.5l0.4-3.5h-0.8c-0.1,0-0.1,0-0.2-0.1
		s-0.1-0.1-0.1-0.2c0,0,0,0,0-0.1v-0.1c0-0.1,0-0.1,0-0.2s0-0.1,0-0.2l1.1-0.1l0.5-2.2c0-0.1,0.1-0.1,0.1-0.2c0.1,0,0.1-0.1,0.2-0.1
		h0.7l-0.3,2.4h1.9l-0.1,0.9h-1.9l-0.4,3.5c0,0.2,0,0.3-0.1,0.5c0,0.1,0,0.2,0,0.3c0,0.1,0,0.1,0,0.1s0,0,0,0.1
		c0,0.2,0.1,0.4,0.2,0.5c0.1,0.1,0.3,0.2,0.5,0.2c0.1,0,0.2,0,0.3-0.1c0.1,0,0.2-0.1,0.2-0.1c0.1,0,0.1-0.1,0.2-0.1s0.1-0.1,0.1-0.1
		h0.1c0,0,0,0,0.1,0.1l0.3,0.6c-0.2,0.2-0.5,0.4-0.8,0.5s-0.6,0.2-0.9,0.2c-0.5,0-0.8-0.1-1.1-0.4
		C628.6,448.8,628.5,448.4,628.5,447.9z"/>
	<path class="st0" d="M637.9,449.3h-0.6c-0.2,0-0.3,0-0.3-0.1c-0.1-0.1-0.1-0.2-0.1-0.3l0.1-1.4c-0.2,0.3-0.3,0.6-0.5,0.8
		c-0.2,0.2-0.4,0.4-0.6,0.6c-0.2,0.2-0.4,0.3-0.7,0.4c-0.2,0.1-0.5,0.1-0.7,0.1c-0.3,0-0.5-0.1-0.8-0.2c-0.2-0.1-0.4-0.3-0.6-0.5
		c-0.2-0.2-0.3-0.5-0.4-0.8c-0.1-0.3-0.1-0.7-0.1-1.1s0.1-0.8,0.2-1.2c0.1-0.4,0.3-0.8,0.4-1.1c0.2-0.4,0.4-0.7,0.7-1
		s0.6-0.6,0.9-0.8c0.3-0.2,0.7-0.4,1.1-0.5c0.4-0.1,0.8-0.2,1.2-0.2c0.3,0,0.6,0,0.9,0.1c0.3,0,0.6,0.1,0.9,0.3L637.9,449.3z
		 M634.8,448.3c0.2,0,0.5-0.1,0.7-0.2s0.4-0.3,0.6-0.6s0.4-0.5,0.5-0.9c0.2-0.3,0.3-0.7,0.5-1.1l0.3-2.4c-0.1-0.1-0.2-0.1-0.3-0.1
		s-0.2,0-0.3,0c-0.3,0-0.6,0-0.8,0.1c-0.3,0.1-0.5,0.2-0.7,0.4c-0.2,0.2-0.4,0.4-0.6,0.6c-0.2,0.2-0.3,0.5-0.5,0.7s-0.2,0.6-0.3,0.9
		s-0.1,0.6-0.1,0.9C633.7,447.8,634.1,448.3,634.8,448.3z"/>
	<path class="st0" d="M642.3,438.9l-0.7,6.1h0.2c0.1,0,0.2,0,0.2,0c0.1,0,0.1-0.1,0.2-0.2l2.3-2.4c0.1-0.1,0.1-0.1,0.2-0.2
		c0.1,0,0.2-0.1,0.3-0.1h1.1l-2.7,2.8c-0.1,0.1-0.1,0.1-0.2,0.2c-0.1,0.1-0.1,0.1-0.2,0.2c0.1,0.1,0.1,0.1,0.2,0.2
		c0.1,0.1,0.1,0.2,0.2,0.2l2.1,3.5h-1.1c-0.1,0-0.2,0-0.2-0.1c-0.1,0-0.1-0.1-0.2-0.2l-1.8-2.9c-0.1-0.1-0.1-0.2-0.2-0.2
		c-0.1,0-0.2,0-0.3,0h-0.2l-0.4,3.4h-1.2l1.3-10.3H642.3z"/>
	<path class="st0" d="M651.7,443.7c0,0.3-0.1,0.6-0.2,0.9s-0.4,0.5-0.7,0.7s-0.8,0.4-1.4,0.5c-0.6,0.2-1.3,0.3-2.3,0.4
		c0,0.1,0,0.1,0,0.2s0,0.1,0,0.2c0,0.6,0.1,1.1,0.4,1.4c0.3,0.3,0.7,0.5,1.2,0.5c0.2,0,0.4,0,0.6-0.1c0.2,0,0.3-0.1,0.5-0.2
		c0.1-0.1,0.3-0.1,0.4-0.2c0.1-0.1,0.2-0.2,0.3-0.2s0.2-0.1,0.2-0.2c0.1,0,0.1-0.1,0.2-0.1c0.1,0,0.2,0,0.2,0.1l0.3,0.4
		c-0.2,0.2-0.5,0.5-0.7,0.6c-0.2,0.2-0.5,0.3-0.7,0.4s-0.5,0.2-0.7,0.3c-0.3,0.1-0.5,0.1-0.8,0.1c-0.4,0-0.8-0.1-1.1-0.2
		s-0.6-0.3-0.8-0.6c-0.2-0.2-0.4-0.6-0.5-0.9c-0.1-0.4-0.2-0.8-0.2-1.2c0-0.4,0-0.7,0.1-1.1s0.2-0.7,0.3-1s0.3-0.6,0.5-0.9
		s0.5-0.5,0.7-0.7c0.3-0.2,0.6-0.4,0.9-0.5c0.3-0.1,0.7-0.2,1.1-0.2c0.4,0,0.7,0.1,0.9,0.2c0.3,0.1,0.5,0.2,0.6,0.4
		c0.2,0.2,0.3,0.3,0.4,0.5C651.7,443.3,651.7,443.5,651.7,443.7z M649.6,443c-0.3,0-0.6,0.1-0.8,0.2s-0.5,0.3-0.7,0.5
		s-0.4,0.5-0.5,0.7c-0.1,0.3-0.2,0.6-0.3,0.9c0.7-0.1,1.3-0.2,1.7-0.3c0.4-0.1,0.8-0.2,1-0.4s0.4-0.3,0.5-0.4
		c0.1-0.2,0.1-0.3,0.1-0.5c0-0.1,0-0.2-0.1-0.3c0-0.1-0.1-0.2-0.2-0.2c-0.1-0.1-0.2-0.1-0.3-0.2C649.9,443,649.8,443,649.6,443z"/>
	<path class="st0" d="M660.4,449.3h-0.6c-0.2,0-0.3,0-0.3-0.1s-0.1-0.2-0.1-0.3l0.1-1.4c-0.2,0.3-0.3,0.6-0.5,0.8
		c-0.2,0.2-0.4,0.4-0.6,0.6s-0.4,0.3-0.7,0.4s-0.5,0.1-0.7,0.1c-0.3,0-0.5-0.1-0.8-0.2s-0.4-0.3-0.6-0.5c-0.2-0.2-0.3-0.5-0.4-0.8
		c-0.1-0.3-0.1-0.7-0.1-1.1s0.1-0.8,0.2-1.2c0.1-0.4,0.3-0.8,0.4-1.1c0.2-0.4,0.4-0.7,0.7-1s0.6-0.6,0.9-0.8
		c0.3-0.2,0.7-0.4,1.1-0.5c0.4-0.1,0.8-0.2,1.2-0.2c0.3,0,0.6,0,0.9,0.1c0.3,0,0.6,0.1,0.9,0.3L660.4,449.3z M657.4,448.3
		c0.2,0,0.5-0.1,0.7-0.2s0.4-0.3,0.6-0.6c0.2-0.2,0.4-0.5,0.5-0.9c0.2-0.3,0.3-0.7,0.5-1.1l0.3-2.4c-0.1-0.1-0.2-0.1-0.3-0.1
		s-0.2,0-0.3,0c-0.3,0-0.5,0-0.8,0.1s-0.5,0.2-0.7,0.4c-0.2,0.2-0.4,0.4-0.6,0.6c-0.2,0.2-0.3,0.5-0.5,0.7c-0.1,0.3-0.2,0.6-0.3,0.9
		s-0.1,0.6-0.1,0.9C656.3,447.8,656.7,448.3,657.4,448.3z"/>
	<path class="st0" d="M664.7,451.7l1.2-9.5h0.6c0.3,0,0.4,0.1,0.4,0.4l-0.1,1.5c0.2-0.3,0.4-0.6,0.6-0.8c0.2-0.2,0.4-0.5,0.7-0.6
		c0.2-0.2,0.5-0.3,0.7-0.4s0.5-0.1,0.8-0.1c0.6,0,1.1,0.2,1.4,0.7s0.5,1.1,0.5,1.9c0,0.4,0,0.8-0.1,1.1c-0.1,0.4-0.2,0.7-0.3,1.1
		c-0.1,0.3-0.3,0.7-0.5,1s-0.4,0.6-0.7,0.8c-0.3,0.2-0.5,0.4-0.8,0.5s-0.6,0.2-0.9,0.2c-0.4,0-0.7-0.1-1-0.2s-0.5-0.3-0.7-0.6
		l-0.4,3.1h-1.4V451.7z M669,443.1c-0.2,0-0.5,0.1-0.7,0.2s-0.5,0.3-0.7,0.6s-0.4,0.6-0.6,0.9s-0.3,0.7-0.5,1.1l-0.2,1.8
		c0.2,0.3,0.4,0.4,0.6,0.5c0.2,0.1,0.5,0.2,0.8,0.2c0.2,0,0.5-0.1,0.7-0.2s0.4-0.2,0.6-0.4c0.2-0.2,0.3-0.4,0.5-0.6
		c0.1-0.2,0.3-0.5,0.4-0.8c0.1-0.3,0.2-0.5,0.2-0.8s0.1-0.6,0.1-0.9c0-0.6-0.1-1-0.3-1.3C669.7,443.2,669.4,443.1,669,443.1z"/>
	<path class="st0" d="M672.3,449.3l1.2-10.3h1.2l-0.6,4.8c0.4-0.6,0.8-1,1.2-1.2s0.9-0.4,1.4-0.4s0.9,0.2,1.2,0.5
		c0.3,0.4,0.4,0.9,0.4,1.5c0,0.1,0,0.2,0,0.3c0,0.1,0,0.2,0,0.3l-0.5,4.5h-1.2l0.5-4.5c0-0.1,0-0.2,0-0.3c0-0.1,0-0.2,0-0.2
		c0-0.4-0.1-0.7-0.2-0.9c-0.1-0.2-0.4-0.3-0.7-0.3c-0.2,0-0.4,0.1-0.6,0.2c-0.2,0.1-0.4,0.3-0.6,0.5s-0.4,0.5-0.6,0.8
		c-0.2,0.3-0.3,0.6-0.5,1l-0.5,3.8L672.3,449.3L672.3,449.3z"/>
	<path class="st0" d="M682.2,449.4c-0.4,0-0.7-0.1-1.1-0.2s-0.6-0.3-0.8-0.6c-0.2-0.3-0.4-0.6-0.5-0.9c-0.1-0.4-0.2-0.8-0.2-1.2
		c0-0.6,0.1-1.2,0.3-1.7s0.4-1,0.8-1.4c0.3-0.4,0.7-0.7,1.1-0.9c0.4-0.2,0.9-0.3,1.4-0.3c0.4,0,0.7,0.1,1.1,0.2
		c0.3,0.1,0.6,0.3,0.8,0.6c0.2,0.3,0.4,0.6,0.5,0.9c0.1,0.4,0.2,0.8,0.2,1.2c0,0.6-0.1,1.2-0.3,1.7s-0.4,1-0.8,1.4s-0.7,0.7-1.2,0.9
		C683.2,449.2,682.7,449.4,682.2,449.4z M682.3,448.4c0.3,0,0.7-0.1,0.9-0.3c0.3-0.2,0.5-0.4,0.7-0.7c0.2-0.3,0.3-0.7,0.5-1.1
		s0.2-0.8,0.2-1.3c0-0.7-0.1-1.1-0.4-1.5c-0.3-0.3-0.6-0.5-1.1-0.5c-0.3,0-0.7,0.1-0.9,0.3c-0.3,0.2-0.5,0.4-0.7,0.7
		c-0.2,0.3-0.3,0.7-0.5,1.1c-0.1,0.4-0.2,0.8-0.2,1.3c0,0.7,0.1,1.1,0.4,1.5C681.4,448.2,681.8,448.4,682.3,448.4z"/>
	<path class="st0" d="M687.3,447.9v-0.1c0,0,0-0.1,0-0.2s0-0.2,0-0.3c0-0.1,0-0.3,0.1-0.5l0.4-3.5H687c-0.1,0-0.1,0-0.2-0.1
		c0,0-0.1-0.1-0.1-0.2c0,0,0,0,0-0.1v-0.1c0-0.1,0-0.1,0-0.2s0-0.1,0-0.2l1.1-0.1l0.5-2.2c0-0.1,0.1-0.1,0.1-0.2
		c0.1,0,0.1-0.1,0.2-0.1h0.7l-0.3,2.4h1.9l-0.1,0.9h-1.9l-0.4,3.5c0,0.2,0,0.3-0.1,0.5c0,0.1,0,0.2,0,0.3s0,0.1,0,0.1s0,0,0,0.1
		c0,0.2,0.1,0.4,0.2,0.5c0.1,0.1,0.3,0.2,0.5,0.2c0.1,0,0.2,0,0.3-0.1c0.1,0,0.2-0.1,0.2-0.1s0.1-0.1,0.2-0.1l0.1-0.1h0.1
		c0,0,0,0,0.1,0.1l0.3,0.6c-0.2,0.2-0.5,0.4-0.8,0.5s-0.6,0.2-0.9,0.2c-0.5,0-0.8-0.1-1.1-0.4C687.5,448.8,687.3,448.4,687.3,447.9z
		"/>
	<path class="st0" d="M694,449.4c-0.4,0-0.7-0.1-1.1-0.2s-0.6-0.3-0.8-0.6c-0.2-0.3-0.4-0.6-0.5-0.9c-0.1-0.4-0.2-0.8-0.2-1.2
		c0-0.6,0.1-1.2,0.3-1.7s0.4-1,0.8-1.4c0.3-0.4,0.7-0.7,1.1-0.9c0.4-0.2,0.9-0.3,1.4-0.3c0.4,0,0.7,0.1,1.1,0.2
		c0.3,0.1,0.6,0.3,0.8,0.6c0.2,0.3,0.4,0.6,0.5,0.9c0.1,0.4,0.2,0.8,0.2,1.2c0,0.6-0.1,1.2-0.3,1.7s-0.4,1-0.8,1.4s-0.7,0.7-1.2,0.9
		C695,449.2,694.5,449.4,694,449.4z M694.1,448.4c0.3,0,0.7-0.1,0.9-0.3c0.3-0.2,0.5-0.4,0.7-0.7c0.2-0.3,0.3-0.7,0.5-1.1
		s0.2-0.8,0.2-1.3c0-0.7-0.1-1.1-0.4-1.5c-0.3-0.3-0.6-0.5-1.1-0.5c-0.3,0-0.7,0.1-0.9,0.3c-0.3,0.2-0.5,0.4-0.7,0.7
		c-0.2,0.3-0.3,0.7-0.5,1.1c-0.1,0.4-0.2,0.8-0.2,1.3c0,0.7,0.1,1.1,0.4,1.5C693.3,448.2,693.6,448.4,694.1,448.4z"/>
</g>
</svg>
