<?xml version="1.0" encoding="utf-8"?>
<!-- Generator: Adobe Illustrator 20.0.0, SVG Export Plug-In . SVG Version: 6.00 Build 0)  -->
<svg version="1.1" id="Layer_1" xmlns="http://www.w3.org/2000/svg" xmlns:xlink="http://www.w3.org/1999/xlink" x="0px" y="0px"
	 viewBox="0 0 1280 800" style="enable-background:new 0 0 1280 800;" xml:space="preserve">
<style type="text/css">
	.st0{fill:#FFAB1A;}
</style>
<g>
	<path class="st0" d="M816,451.4v-6.8c0-10.4-8.4-18.8-18.8-18.8H778c-10.4,0-18.8,8.4-18.8,18.8v115.2c0,10.4,8.4,18.8,18.8,18.8
		h19.2c10.4,0,18.8-8.4,18.8-18.8V553c0.1,0,0.3,0,0.4,0c13.9,0,25.2-11.3,25.2-25.2v-76.4H816z M432.8,451.4v76.4
		c0,13.9,11.3,25.2,25.2,25.2c0.1,0,0.3,0,0.4,0v6.8c0,10.4,8.4,18.8,18.8,18.8h19.2c10.4,0,18.8-8.4,18.8-18.8V444.6
		c0-10.4-8.4-18.8-18.8-18.8h-19.2c-10.4,0-18.8,8.4-18.8,18.8v6.8H432.8z M470.4,444.6c0-3.8,3-6.8,6.8-6.8h19.2
		c3.7,0,6.8,3.1,6.8,6.8v115.2c0,3.8-3,6.8-6.8,6.8h-19.2c-3.7,0-6.8-3.1-6.8-6.8V444.6z M458.4,463.4V541c-0.1,0-0.3,0-0.4,0
		c-7.3,0-13.2-5.9-13.2-13.2v-64.4H458.4z M804,559.8c0,3.8-3.1,6.8-6.8,6.8H778c-3.8,0-6.8-3.1-6.8-6.8V444.6
		c0-3.8,3.1-6.8,6.8-6.8h19.2c3.8,0,6.8,3.1,6.8,6.8V559.8z M816.4,541c-0.1,0-0.3,0-0.4,0v-77.6h13.6v64.4
		C829.6,535.1,823.7,541,816.4,541L816.4,541z"/>
</g>
<path class="st0" d="M856.8,510.7c-3.5,0-6.3-2.8-6.3-6.3V419c0-56.7-22.3-110.2-62.7-150.6s-93.9-62.7-150.6-62.7
	S527,228,486.6,268.4s-62.7,93.9-62.7,150.6v85.3c0,3.5-2.8,6.3-6.3,6.3s-6.3-2.8-6.3-6.3V419c0-60.1,23.6-116.8,66.4-159.6
	S577.2,193,637.3,193s116.8,23.6,159.6,66.4s66.4,99.5,66.4,159.6v85.3C863.1,507.8,860.3,510.7,856.8,510.7z"/>
</svg>
