<svg id="Layer_1" data-name="Layer 1" xmlns="http://www.w3.org/2000/svg" viewBox="0 0 69 61"><defs><style>.cls-1,.cls-2{fill:#e5e5cf;}.cls-2{fill-rule:evenodd;}</style></defs><title>icon_calendar</title><rect class="cls-1" x="11" y="30" width="6" height="6"/><rect class="cls-1" x="25" y="30" width="6" height="6"/><rect class="cls-1" x="38" y="30" width="6" height="6"/><rect class="cls-1" x="11" y="44" width="6" height="6"/><rect class="cls-1" x="25" y="44" width="6" height="6"/><rect class="cls-1" x="38" y="44" width="6" height="6"/><rect class="cls-1" x="52" y="44" width="6" height="6"/><path class="cls-2" d="M402,297h69V255H402Zm4-38h61v34H406Z" transform="translate(-402 -236)"/><rect class="cls-1" x="52" width="6" height="9"/><rect class="cls-1" x="11" width="6" height="9"/><polygon class="cls-2" points="61 3 61 12 49 12 49 3 20 3 20 12 8 12 8 3 0 3 0 15 69 15 69 3 61 3"/></svg>