<?xml version="1.0" encoding="utf-8"?>
<!-- Generator: Adobe Illustrator 19.2.1, SVG Export Plug-In . SVG Version: 6.00 Build 0)  -->
<svg version="1.1" id="Layer_1" xmlns="http://www.w3.org/2000/svg" xmlns:xlink="http://www.w3.org/1999/xlink" x="0px" y="0px"
	 viewBox="0 0 595.3 841.9" style="enable-background:new 0 0 595.3 841.9;" xml:space="preserve">
<style type="text/css">
	.st0{fill:#FFAB1A;}
</style>
<path class="st0" d="M406.4,375.9C406.3,375.9,406.3,375.9,406.4,375.9c-0.1-0.1-0.2,0-0.2,0l-0.9,0.9c0,0,0,0.1,0,0.2
	c0.7,1.2,1,2.5,0.8,3.9c-0.2,1.5-1,2.8-2.2,3.7s-2.7,1.2-4.2,1c-3.1-0.5-5.2-3.4-4.7-6.4c0.2-1.5,1-2.8,2.2-3.7
	c1-0.7,2.1-1.1,3.3-1.1c0,0,0,0,0,0l-1.9,1.9c0,0,0,0.1,0,0.1c0,0,0,0.1,0,0.1l0.8,0.8c0,0,0.1,0,0.2,0l2.7-2.8c0,0,0,0,0,0l0.8-0.8
	c0-0.1,0-0.1,0-0.2l-3.6-3.5c0,0-0.1,0-0.1,0c0,0-0.1,0-0.1,0l-0.8,0.8c0,0,0,0.1,0,0.2l1.9,1.9c0,0,0,0,0,0c-1.5,0-2.9,0.5-4.2,1.4
	c-1.5,1.1-2.5,2.8-2.8,4.7c-0.6,3.9,2.1,7.5,5.9,8.1c0.4,0.1,0.7,0.1,1.1,0.1c3.5,0,6.5-2.6,7-6
	C407.8,379.3,407.4,377.4,406.4,375.9z"/>
</svg>
