<?xml version="1.0" encoding="utf-8"?>
<!-- Generator: Adobe Illustrator 19.2.1, SVG Export Plug-In . SVG Version: 6.00 Build 0)  -->
<svg version="1.1" id="Layer_1" xmlns="http://www.w3.org/2000/svg" xmlns:xlink="http://www.w3.org/1999/xlink" x="0px" y="0px"
	 viewBox="0 0 1280 800" style="enable-background:new 0 0 1280 800;" xml:space="preserve">
<style type="text/css">
	.st0{fill:#FFAB1A;}
</style>
<path class="st0" d="M655.3,405.3c5.7-5.7,5.7-14.9,0-20.5c-5.7-5.7-14.9-5.7-20.6,0c-5.3,5.3-5.6,13.8-1,19.5l-0.7,0.7
	c-0.4-0.3-1.1-0.3-1.5,0.1l-10.8,10.7c-0.4,0.4-0.4,1.1,0,1.6l1.8,1.8c0.4,0.4,1.1,0.4,1.6,0l10.8-10.7c0.4-0.4,0.4-1,0.1-1.5
	l0.7-0.7C641.5,410.9,649.9,410.6,655.3,405.3z M636.6,386.6c4.6-4.6,12.2-4.6,16.8,0c4.6,4.6,4.6,12.2,0,16.8
	c-4.6,4.6-12.2,4.6-16.8,0C631.9,398.8,631.9,391.3,636.6,386.6z"/>
</svg>
