<?xml version="1.0" encoding="utf-8"?>
<!-- Generator: Adobe Illustrator 19.2.1, SVG Export Plug-In . SVG Version: 6.00 Build 0)  -->
<svg version="1.1" id="Layer_1" xmlns="http://www.w3.org/2000/svg" xmlns:xlink="http://www.w3.org/1999/xlink" x="0px" y="0px"
	 viewBox="0 0 2834.6 2381.1" style="enable-background:new 0 0 2834.6 2381.1;" xml:space="preserve">
<style type="text/css">
	.st0{fill:#FFAB1A;}
</style>
<g>
	<path class="st0" d="M1303.5,1016.6l2.1-3.8l-4.2-2.3l-2.1,3.8c-3.7-1.7-7.7-2.8-12-3.1v-6h7.7v-4.8H1275v4.8h7.7v6
		c-17.4,1.2-31.2,15.8-31.2,33.5c0,18.5,15.1,33.6,33.6,33.6s33.6-15.1,33.6-33.6C1318.6,1032.9,1312.6,1022.6,1303.5,1016.6z
		 M1285,1073.6c-16,0-29-13-29-29s13-29,29-29s29,13,29,29S1301,1073.6,1285,1073.6z"/>
	<path class="st0" d="M1286.5,1041.4v-21h-3v21c-1.2,0.6-2.1,1.8-2.1,3.3c0,2,1.6,3.6,3.6,3.6s3.6-1.6,3.6-3.6
		C1288.6,1043.2,1287.7,1042,1286.5,1041.4z"/>
</g>
</svg>
